# This file uses centimeters as units for non-parametric coordinates.

mtllib PipeThin.mtl
g default
v 0.923880 2.000000 -0.382683
v 0.707107 2.000000 -0.707106
v 0.382684 2.000000 -0.923879
v 0.000001 2.000000 -1.000000
v -0.382683 2.000000 -0.923880
v -0.707106 2.000000 -0.707107
v -0.923879 2.000000 -0.382684
v -1.000000 2.000000 -0.000000
v -0.923880 2.000000 0.382683
v -0.707107 2.000000 0.707107
v -0.382684 2.000000 0.923879
v -0.000000 2.000000 1.000000
v 0.382683 2.000000 0.923880
v 0.707107 2.000000 0.707107
v 0.923880 2.000000 0.382683
v 1.000000 2.000000 0.000000
v 0.923880 0.000000 -0.382683
v 0.707107 0.000000 -0.707106
v 0.382684 0.000000 -0.923879
v 0.000001 0.000000 -1.000000
v -0.382683 0.000000 -0.923880
v -0.707106 0.000000 -0.707107
v -0.923879 0.000000 -0.382684
v -1.000000 0.000000 -0.000000
v -0.923880 0.000000 0.382683
v -0.707107 0.000000 0.707107
v -0.382684 0.000000 0.923879
v -0.000000 0.000000 1.000000
v 0.382683 0.000000 0.923880
v 0.707107 0.000000 0.707107
v 0.923880 0.000000 0.382683
v 1.000000 0.000000 0.000000
vt 0.000030 0.500046
vt 0.062528 0.500041
vt 0.125026 0.500035
vt 0.187524 0.500029
vt 0.250022 0.500023
vt 0.312520 0.500018
vt 0.375019 0.500012
vt 0.437517 0.500006
vt 0.500015 0.500000
vt 0.562513 0.499994
vt 0.625011 0.499989
vt 0.687509 0.499983
vt 0.750007 0.499977
vt 0.812505 0.499971
vt 0.875004 0.499965
vt 0.937502 0.499959
vt 1.000000 0.499954
vt 0.999970 0.000000
vt 0.000000 0.000093
vt 0.062498 0.000087
vt 0.124996 0.000081
vt 0.187494 0.000075
vt 0.249993 0.000070
vt 0.312491 0.000064
vt 0.374989 0.000058
vt 0.437487 0.000052
vt 0.499985 0.000046
vt 0.562483 0.000041
vt 0.624981 0.000035
vt 0.687479 0.000029
vt 0.749978 0.000023
vt 0.812476 0.000017
vt 0.874974 0.000012
vt 0.937472 0.000006
vn 0.923880 0.000000 -0.382683
vn 0.707107 0.000000 -0.707107
vn 0.707107 0.000000 -0.707107
vn 0.923880 0.000000 -0.382683
vn 0.382684 0.000000 -0.923879
vn 0.382684 0.000000 -0.923879
vn 0.000001 0.000000 -1.000000
vn 0.000001 0.000000 -1.000000
vn -0.382683 0.000000 -0.923880
vn -0.382683 0.000000 -0.923880
vn -0.707106 0.000000 -0.707107
vn -0.707106 0.000000 -0.707107
vn -0.923879 0.000000 -0.382684
vn -0.923879 0.000000 -0.382684
vn -1.000000 0.000000 -0.000000
vn -1.000000 0.000000 -0.000000
vn -0.923880 0.000000 0.382683
vn -0.923880 0.000000 0.382683
vn -0.707107 0.000000 0.707107
vn -0.707107 0.000000 0.707107
vn -0.382684 0.000000 0.923879
vn -0.382684 0.000000 0.923879
vn -0.000000 0.000000 1.000000
vn -0.000000 0.000000 1.000000
vn 0.382683 0.000000 0.923880
vn 0.382683 0.000000 0.923880
vn 0.707107 0.000000 0.707107
vn 0.707107 0.000000 0.707107
vn 0.923880 0.000000 0.382684
vn 0.923880 0.000000 0.382684
vn 1.000000 0.000000 0.000000
vn 1.000000 0.000000 0.000000
s 1
g PipeThin
usemtl initialShadingGroup
f 17/19/1 18/20/2 2/2/3 1/1/4
f 18/20/2 19/21/5 3/3/6 2/2/3
f 19/21/5 20/22/7 4/4/8 3/3/6
f 20/22/7 21/23/9 5/5/10 4/4/8
f 21/23/9 22/24/11 6/6/12 5/5/10
f 22/24/11 23/25/13 7/7/14 6/6/12
f 23/25/13 24/26/15 8/8/16 7/7/14
f 24/26/15 25/27/17 9/9/18 8/8/16
f 25/27/17 26/28/19 10/10/20 9/9/18
f 26/28/19 27/29/21 11/11/22 10/10/20
f 27/29/21 28/30/23 12/12/24 11/11/22
f 28/30/23 29/31/25 13/13/26 12/12/24
f 29/31/25 30/32/27 14/14/28 13/13/26
f 30/32/27 31/33/29 15/15/30 14/14/28
f 31/33/29 32/34/31 16/16/32 15/15/30
f 32/34/31 17/18/1 1/17/4 16/16/32
