# This file uses centimeters as units for non-parametric coordinates.

mtllib PipeThin_Joint.mtl
g default
v -0.923880 0.000000 -0.382683
v -0.707107 0.000000 -0.707106
v -0.382684 0.000000 -0.923879
v -0.000001 0.000000 -1.000000
v 0.382683 0.000000 -0.923880
v 0.707106 0.000000 -0.707107
v 0.923879 0.000000 -0.382684
v 1.000000 0.000000 -0.000000
v 0.923880 0.000000 0.382683
v 0.707107 0.000000 0.707107
v 0.382684 0.000000 0.923879
v 0.000000 0.000000 1.000000
v -0.382683 0.000000 0.923880
v -0.707107 0.000000 0.707107
v -0.923880 0.000000 0.382683
v -1.000000 0.000000 0.000000
v -0.923880 2.000000 -0.382683
v -0.707107 2.000000 -0.707106
v -0.382684 2.000000 -0.923879
v -0.000001 2.000000 -1.000000
v 0.382683 2.000000 -0.923880
v 0.707106 2.000000 -0.707107
v 0.923879 2.000000 -0.382684
v 1.000000 2.000000 -0.000000
v 0.923880 2.000000 0.382683
v 0.707107 2.000000 0.707107
v 0.382684 2.000000 0.923879
v 0.000000 2.000000 1.000000
v -0.382683 2.000000 0.923880
v -0.707107 2.000000 0.707107
v -0.923880 2.000000 0.382683
v -1.000000 2.000000 0.000000
v -0.923880 1.654058 -0.382683
v -0.707107 1.654058 -0.707106
v -0.382684 1.654058 -0.923879
v -0.000001 1.654058 -1.000000
v 0.382683 1.654058 -0.923880
v 0.707106 1.654058 -0.707107
v 0.923879 1.654058 -0.382684
v 1.000000 1.654058 -0.000000
v 0.923880 1.654058 0.382683
v 0.707107 1.654058 0.707107
v 0.382684 1.654058 0.923879
v 0.000000 1.654058 1.000000
v -0.382683 1.654058 0.923880
v -0.707107 1.654058 0.707107
v -0.923880 1.654058 0.382683
v -1.000000 1.654058 0.000000
v -1.072241 2.000000 -0.444136
v -0.820658 2.000000 -0.820657
v -0.820658 1.654058 -0.820657
v -1.072241 1.654058 -0.444136
v -0.444137 2.000000 -1.072240
v -0.444137 1.654058 -1.072240
v -0.000001 2.000000 -1.160585
v -0.000001 1.654058 -1.160585
v 0.444136 2.000000 -1.072241
v 0.444136 1.654058 -1.072241
v 0.820657 2.000000 -0.820658
v 0.820657 1.654058 -0.820658
v 1.072240 2.000000 -0.444137
v 1.072240 1.654058 -0.444137
v 1.160585 2.000000 -0.000000
v 1.160585 1.654058 -0.000000
v 1.072241 2.000000 0.444136
v 1.072241 1.654058 0.444136
v 0.820658 2.000000 0.820657
v 0.820658 1.654058 0.820657
v 0.444137 2.000000 1.072241
v 0.444137 1.654058 1.072241
v 0.000000 2.000000 1.160585
v 0.000000 1.654058 1.160585
v -0.444136 2.000000 1.072241
v -0.444136 1.654058 1.072241
v -0.820657 2.000000 0.820658
v -0.820657 1.654058 0.820658
v -1.072241 2.000000 0.444137
v -1.072241 1.654058 0.444137
v -1.160585 2.000000 0.000000
v -1.160585 1.654058 0.000000
vt 1.000000 0.001775
vt 0.937529 0.001664
vt 0.875059 0.001553
vt 0.812588 0.001442
vt 0.750118 0.001331
vt 0.687647 0.001220
vt 0.625176 0.001109
vt 0.562706 0.000999
vt 0.500235 0.000888
vt 0.437764 0.000777
vt 0.375294 0.000666
vt 0.312823 0.000555
vt 0.250353 0.000444
vt 0.187882 0.000333
vt 0.125411 0.000222
vt 0.062941 0.000111
vt 0.000470 0.000000
vt 0.000000 0.367530
vt 1.000000 0.367530
vt 0.937609 0.367530
vt 0.875909 0.367530
vt 0.813349 0.367530
vt 0.750645 0.367530
vt 0.687966 0.367530
vt 0.625306 0.367530
vt 0.562652 0.367530
vt 0.500000 0.367530
vt 0.437348 0.367530
vt 0.374694 0.367530
vt 0.312034 0.367530
vt 0.249354 0.367530
vt 0.186650 0.367530
vt 0.124091 0.367530
vt 0.062391 0.367530
vt 0.000000 0.271340
vt 0.999530 0.266601
vt 0.937609 0.271340
vt 0.875909 0.271340
vt 0.813349 0.271340
vt 0.750645 0.271340
vt 0.687966 0.271340
vt 0.625306 0.271340
vt 0.562652 0.271340
vt 0.500000 0.271340
vt 0.437348 0.271340
vt 0.374694 0.271340
vt 0.312034 0.271340
vt 0.249354 0.271340
vt 0.186650 0.271340
vt 0.124091 0.271340
vt 0.062391 0.271340
vt 1.000000 0.343884
vt 0.937609 0.343884
vt 0.937609 0.294986
vt 1.000000 0.294986
vt 0.875909 0.343884
vt 0.875909 0.294986
vt 0.813349 0.343884
vt 0.813349 0.294986
vt 0.750645 0.343884
vt 0.750645 0.294986
vt 0.687966 0.343884
vt 0.687966 0.294986
vt 0.625306 0.343884
vt 0.625306 0.294986
vt 0.562652 0.343884
vt 0.562652 0.294986
vt 0.500000 0.343884
vt 0.500000 0.294986
vt 0.437348 0.343884
vt 0.437348 0.294986
vt 0.374694 0.343884
vt 0.374694 0.294986
vt 0.312034 0.343884
vt 0.312034 0.294986
vt 0.249354 0.343884
vt 0.249354 0.294986
vt 0.186650 0.343884
vt 0.186650 0.294986
vt 0.124091 0.343884
vt 0.124091 0.294986
vt 0.062391 0.343884
vt 0.062391 0.294986
vt 0.000000 0.343884
vt 0.000000 0.294986
vt 0.062471 0.264937
vt 0.000000 0.264826
vt 1.000000 0.271340
vt 0.124941 0.265048
vt 0.187412 0.265159
vt 0.249882 0.265270
vt 0.312353 0.265381
vt 0.374824 0.265492
vt 0.437294 0.265603
vt 0.499765 0.265714
vt 0.562235 0.265825
vt 0.624706 0.265935
vt 0.687177 0.266046
vt 0.749647 0.266157
vt 0.812118 0.266268
vt 0.874588 0.266379
vt 0.937059 0.266490
vn -0.923880 0.000000 -0.382683
vn -0.707107 0.000000 -0.707106
vn -0.707107 0.000000 -0.707106
vn -0.923880 0.000000 -0.382683
vn -0.382684 0.000000 -0.923879
vn -0.382684 0.000000 -0.923879
vn -0.000001 0.000000 -1.000000
vn -0.000001 0.000000 -1.000000
vn 0.382683 0.000000 -0.923880
vn 0.382683 0.000000 -0.923880
vn 0.707106 0.000000 -0.707107
vn 0.707106 0.000000 -0.707107
vn 0.923879 0.000000 -0.382684
vn 0.923879 0.000000 -0.382684
vn 1.000000 0.000000 -0.000000
vn 1.000000 0.000000 -0.000000
vn 0.923880 0.000000 0.382683
vn 0.923880 0.000000 0.382683
vn 0.707107 0.000000 0.707107
vn 0.707107 0.000000 0.707107
vn 0.382684 0.000000 0.923880
vn 0.382684 0.000000 0.923880
vn 0.000000 0.000000 1.000000
vn 0.000000 0.000000 1.000000
vn -0.382683 0.000000 0.923880
vn -0.382683 0.000000 0.923880
vn -0.707107 0.000000 0.707107
vn -0.707107 0.000000 0.707107
vn -0.923880 0.000000 0.382683
vn -0.923880 0.000000 0.382683
vn -1.000000 0.000000 0.000000
vn -1.000000 0.000000 0.000000
vn -0.923880 0.000000 -0.382683
vn -0.707107 0.000000 -0.707106
vn -0.707107 0.000000 -0.707106
vn -0.923880 0.000000 -0.382683
vn -0.382684 -0.000000 -0.923879
vn -0.382684 -0.000000 -0.923879
vn -0.000001 -0.000000 -1.000000
vn -0.000001 -0.000000 -1.000000
vn 0.382683 -0.000000 -0.923880
vn 0.382683 -0.000000 -0.923880
vn 0.707106 0.000000 -0.707107
vn 0.707106 0.000000 -0.707107
vn 0.923879 0.000000 -0.382684
vn 0.923879 0.000000 -0.382684
vn 1.000000 0.000000 -0.000000
vn 1.000000 0.000000 -0.000000
vn 0.923880 -0.000000 0.382683
vn 0.923880 -0.000000 0.382683
vn 0.707107 -0.000000 0.707107
vn 0.707107 -0.000000 0.707107
vn 0.382684 -0.000000 0.923879
vn 0.382684 -0.000000 0.923879
vn 0.000000 -0.000000 1.000000
vn 0.000000 -0.000000 1.000000
vn -0.382683 -0.000000 0.923880
vn -0.382683 -0.000000 0.923880
vn -0.707107 -0.000000 0.707107
vn -0.707107 -0.000000 0.707107
vn -0.923880 0.000000 0.382683
vn -0.923880 0.000000 0.382683
vn -1.000000 0.000000 0.000000
vn -1.000000 0.000000 0.000000
vn 0.000000 1.000000 0.000000
vn 0.000000 1.000000 0.000000
vn 0.000000 1.000000 0.000000
vn 0.000000 1.000000 0.000000
vn 0.000000 -1.000000 0.000000
vn 0.000000 -1.000000 -0.000000
vn 0.000000 -1.000000 -0.000000
vn 0.000000 -1.000000 0.000000
vn 0.000000 1.000000 0.000000
vn 0.000000 1.000000 0.000000
vn 0.000000 -1.000000 0.000000
vn 0.000000 -1.000000 0.000000
vn 0.000000 1.000000 -0.000000
vn 0.000000 1.000000 -0.000000
vn 0.000000 -1.000000 0.000000
vn 0.000000 -1.000000 0.000000
vn 0.000000 1.000000 -0.000000
vn 0.000000 1.000000 -0.000000
vn 0.000000 -1.000000 0.000000
vn 0.000000 -1.000000 0.000000
vn 0.000000 1.000000 0.000000
vn 0.000000 1.000000 0.000000
vn 0.000000 -1.000000 0.000000
vn 0.000000 -1.000000 0.000000
vn 0.000000 1.000000 0.000000
vn 0.000000 1.000000 0.000000
vn 0.000000 -1.000000 -0.000000
vn 0.000000 -1.000000 -0.000000
vn 0.000000 1.000000 0.000000
vn 0.000000 1.000000 0.000000
vn 0.000000 -1.000000 0.000000
vn 0.000000 -1.000000 0.000000
vn 0.000000 1.000000 0.000000
vn 0.000000 1.000000 0.000000
vn 0.000000 -1.000000 0.000000
vn 0.000000 -1.000000 0.000000
vn 0.000000 1.000000 0.000000
vn 0.000000 1.000000 0.000000
vn 0.000000 -1.000000 -0.000000
vn 0.000000 -1.000000 -0.000000
vn 0.000000 1.000000 0.000000
vn 0.000000 1.000000 0.000000
vn 0.000000 -1.000000 -0.000000
vn 0.000000 -1.000000 -0.000000
vn 0.000000 1.000000 -0.000000
vn 0.000000 1.000000 -0.000000
vn 0.000000 -1.000000 -0.000000
vn 0.000000 -1.000000 -0.000000
vn 0.000000 1.000000 -0.000000
vn 0.000000 1.000000 -0.000000
vn 0.000000 -1.000000 -0.000001
vn 0.000000 -1.000000 -0.000001
vn 0.000000 1.000000 0.000000
vn 0.000000 1.000000 0.000000
vn 0.000000 -1.000000 -0.000000
vn 0.000000 -1.000000 -0.000000
vn 0.000000 1.000000 0.000000
vn 0.000000 1.000000 0.000000
vn 0.000000 -1.000000 0.000000
vn 0.000000 -1.000000 0.000000
vn 0.000000 1.000000 0.000000
vn 0.000000 1.000000 0.000000
vn 0.000000 -1.000000 -0.000000
vn 0.000000 -1.000000 -0.000000
s 1
g PipeThin_Joint
usemtl initialShadingGroup
f 33/36/1 34/102/2 2/2/3 1/1/4
f 34/102/2 35/101/5 3/3/6 2/2/3
f 35/101/5 36/100/7 4/4/8 3/3/6
f 36/100/7 37/99/9 5/5/10 4/4/8
f 37/99/9 38/98/11 6/6/12 5/5/10
f 38/98/11 39/97/13 7/7/14 6/6/12
f 39/97/13 40/96/15 8/8/16 7/7/14
f 40/96/15 41/95/17 9/9/18 8/8/16
f 41/95/17 42/94/19 10/10/20 9/9/18
f 42/94/19 43/93/21 11/11/22 10/10/20
f 43/93/21 44/92/23 12/12/24 11/11/22
f 44/92/23 45/91/25 13/13/26 12/12/24
f 45/91/25 46/90/27 14/14/28 13/13/26
f 46/90/27 47/89/29 15/15/30 14/14/28
f 47/89/29 48/86/31 16/16/32 15/15/30
f 48/86/31 33/87/1 1/17/4 16/16/32
s 2
f 49/52/33 50/53/34 51/54/35 52/55/36
f 50/53/34 53/56/37 54/57/38 51/54/35
f 53/56/37 55/58/39 56/59/40 54/57/38
f 55/58/39 57/60/41 58/61/42 56/59/40
f 57/60/41 59/62/43 60/63/44 58/61/42
f 59/62/43 61/64/45 62/65/46 60/63/44
f 61/64/45 63/66/47 64/67/48 62/65/46
f 63/66/47 65/68/49 66/69/50 64/67/48
f 65/68/49 67/70/51 68/71/52 66/69/50
f 67/70/51 69/72/53 70/73/54 68/71/52
f 69/72/53 71/74/55 72/75/56 70/73/54
f 71/74/55 73/76/57 74/77/58 72/75/56
f 73/76/57 75/78/59 76/79/60 74/77/58
f 75/78/59 77/80/61 78/81/62 76/79/60
f 77/80/61 79/82/63 80/83/64 78/81/62
f 79/82/63 49/84/33 52/85/36 80/83/64
s 3
f 17/19/65 18/20/66 50/53/67 49/52/68
s 4
f 34/37/69 33/88/70 52/55/71 51/54/72
s 3
f 18/20/66 19/21/73 53/56/74 50/53/67
s 4
f 35/38/75 34/37/69 51/54/72 54/57/76
s 3
f 19/21/73 20/22/77 55/58/78 53/56/74
s 4
f 36/39/79 35/38/75 54/57/76 56/59/80
s 3
f 20/22/77 21/23/81 57/60/82 55/58/78
s 4
f 37/40/83 36/39/79 56/59/80 58/61/84
s 3
f 21/23/81 22/24/85 59/62/86 57/60/82
s 4
f 38/41/87 37/40/83 58/61/84 60/63/88
s 3
f 22/24/85 23/25/89 61/64/90 59/62/86
s 4
f 39/42/91 38/41/87 60/63/88 62/65/92
s 3
f 23/25/89 24/26/93 63/66/94 61/64/90
s 4
f 40/43/95 39/42/91 62/65/92 64/67/96
s 3
f 24/26/93 25/27/97 65/68/98 63/66/94
s 4
f 41/44/99 40/43/95 64/67/96 66/69/100
s 3
f 25/27/97 26/28/101 67/70/102 65/68/98
s 4
f 42/45/103 41/44/99 66/69/100 68/71/104
s 3
f 26/28/101 27/29/105 69/72/106 67/70/102
s 4
f 43/46/107 42/45/103 68/71/104 70/73/108
s 3
f 27/29/105 28/30/109 71/74/110 69/72/106
s 4
f 44/47/111 43/46/107 70/73/108 72/75/112
s 3
f 28/30/109 29/31/113 73/76/114 71/74/110
s 4
f 45/48/115 44/47/111 72/75/112 74/77/116
s 3
f 29/31/113 30/32/117 75/78/118 73/76/114
s 4
f 46/49/119 45/48/115 74/77/116 76/79/120
s 3
f 30/32/117 31/33/121 77/80/122 75/78/118
s 4
f 47/50/123 46/49/119 76/79/120 78/81/124
s 3
f 31/33/121 32/34/125 79/82/126 77/80/122
s 4
f 48/51/127 47/50/123 78/81/124 80/83/128
s 3
f 32/34/125 17/18/65 49/84/68 79/82/126
s 4
f 33/35/70 48/51/127 80/83/128 52/85/71
