# This file uses centimeters as units for non-parametric coordinates.

mtllib PipeThin_90.mtl
g default
v 2.546479 1.622599 -0.382683
v 2.546479 1.839372 -0.707106
v 2.546479 2.163795 -0.923879
v 2.546479 2.546479 -1.000000
v 2.546479 2.929162 -0.923880
v 2.546479 3.253586 -0.707107
v 2.546479 3.470359 -0.382684
v 2.546479 3.546479 -0.000000
v 2.546479 3.470359 0.382683
v 2.546479 3.253586 0.707107
v 2.546479 2.929163 0.923879
v 2.546479 2.546479 1.000000
v 2.546479 2.163796 0.923880
v 2.546479 1.839372 0.707107
v 2.546479 1.622600 0.382683
v 2.546479 1.546479 0.000000
v 0.923880 0.000000 -0.382683
v 0.707107 -0.000000 -0.707106
v 0.382684 0.000000 -0.923879
v 0.000001 0.000000 -1.000000
v -0.382683 -0.000000 -0.923880
v -0.707106 0.000000 -0.707107
v -0.923879 0.000000 -0.382684
v -1.000000 0.000000 -0.000000
v -0.923880 0.000000 0.382683
v -0.707107 0.000000 0.707107
v -0.382684 0.000000 0.923879
v -0.000000 0.000000 1.000000
v 0.382683 -0.000000 0.923880
v 0.707107 0.000000 0.707107
v 0.923880 -0.000000 0.382683
v 1.000000 0.000000 0.000000
v 0.948531 0.281761 -0.382683
v 0.735051 0.319403 -0.707106
v 0.415557 0.375739 -0.923879
v 0.038687 0.442191 -1.000000
v -0.338183 0.508643 -0.923880
v -0.657677 0.564979 -0.707107
v -0.871157 0.602621 -0.382684
v -0.946121 0.615839 -0.000000
v -0.871157 0.602621 0.382683
v -0.657678 0.564979 0.707107
v -0.338183 0.508643 0.923879
v 0.038687 0.442191 1.000000
v 0.415556 0.375739 0.923880
v 0.735051 0.319403 0.707107
v 0.948530 0.281761 0.382683
v 1.023494 0.268543 0.000000
v 1.021734 0.554961 -0.382683
v 0.818035 0.629102 -0.707106
v 0.513177 0.740061 -0.923879
v 0.153572 0.870946 -1.000000
v -0.206033 1.001832 -0.923880
v -0.510891 1.112791 -0.707107
v -0.714592 1.186932 -0.382684
v -0.786121 1.212967 -0.000000
v -0.714592 1.186932 0.382683
v -0.510892 1.112791 0.707107
v -0.206034 1.001832 0.923879
v 0.153571 0.870947 1.000000
v 0.513176 0.740061 0.923880
v 0.818034 0.629102 0.707107
v 1.021734 0.554961 0.382683
v 1.093264 0.528927 0.000000
v 1.141267 0.811299 -0.382683
v 0.953536 0.919685 -0.707106
v 0.672577 1.081897 -0.923879
v 0.341164 1.273239 -1.000000
v 0.009750 1.464580 -0.923880
v -0.271209 1.626792 -0.707107
v -0.458940 1.735178 -0.382684
v -0.524862 1.773239 -0.000000
v -0.458940 1.735178 0.382683
v -0.271210 1.626792 0.707107
v 0.009749 1.464581 0.923879
v 0.341163 1.273239 1.000000
v 0.672577 1.081897 0.923880
v 0.953536 0.919686 0.707107
v 1.141266 0.811299 0.382683
v 1.207189 0.773239 0.000000
v 1.303496 1.042987 -0.382683
v 1.137439 1.182326 -0.707106
v 0.888916 1.390861 -0.923879
v 0.595764 1.636845 -1.000000
v 0.302611 1.882829 -0.923880
v 0.054088 2.091365 -0.707107
v -0.111970 2.230704 -0.382684
v -0.170281 2.279633 -0.000000
v -0.111970 2.230704 0.382683
v 0.054088 2.091365 0.707107
v 0.302610 1.882830 0.923879
v 0.595763 1.636845 1.000000
v 0.888915 1.390861 0.923880
v 1.137438 1.182326 0.707107
v 1.303496 1.042987 0.382683
v 1.361807 0.994058 0.000000
v 1.503492 1.242983 -0.382683
v 1.364154 1.409040 -0.707106
v 1.155618 1.657563 -0.923879
v 0.909634 1.950716 -1.000000
v 0.663650 2.243868 -0.923880
v 0.455115 2.492391 -0.707107
v 0.315776 2.658449 -0.382684
v 0.266847 2.716761 -0.000000
v 0.315775 2.658449 0.382683
v 0.455114 2.492392 0.707107
v 0.663650 2.243869 0.923879
v 0.909634 1.950716 1.000000
v 1.155618 1.657564 0.923880
v 1.364153 1.409041 0.707107
v 1.503492 1.242983 0.382683
v 1.552422 1.184672 0.000000
v 1.735180 1.405212 -0.382683
v 1.626793 1.592943 -0.707106
v 1.464582 1.873902 -0.923879
v 1.273240 2.205315 -1.000000
v 1.081898 2.536729 -0.923880
v 0.919687 2.817688 -0.707107
v 0.811300 3.005419 -0.382684
v 0.773240 3.071341 -0.000000
v 0.811300 3.005419 0.382683
v 0.919687 2.817688 0.707107
v 1.081898 2.536729 0.923879
v 1.273240 2.205316 1.000000
v 1.464581 1.873902 0.923880
v 1.626793 1.592943 0.707107
v 1.735180 1.405213 0.382683
v 1.773240 1.339290 0.000000
v 1.991517 1.524745 -0.382683
v 1.917377 1.728444 -0.707106
v 1.806417 2.033302 -0.923879
v 1.675532 2.392907 -1.000000
v 1.544646 2.752512 -0.923880
v 1.433687 3.057370 -0.707107
v 1.359546 3.261070 -0.382684
v 1.333511 3.332600 -0.000000
v 1.359546 3.261070 0.382683
v 1.433687 3.057370 0.707107
v 1.544646 2.752512 0.923879
v 1.675531 2.392907 1.000000
v 1.806417 2.033303 0.923880
v 1.917376 1.728444 0.707107
v 1.991517 1.524745 0.382683
v 2.017552 1.453215 0.000000
v 2.264718 1.597948 -0.382683
v 2.227075 1.811428 -0.707106
v 2.170740 2.130922 -0.923879
v 2.104287 2.507792 -1.000000
v 2.037835 2.884661 -0.923880
v 1.981500 3.204156 -0.707107
v 1.943857 3.417636 -0.382684
v 1.930640 3.492600 -0.000000
v 1.943857 3.417636 0.382683
v 1.981499 3.204157 0.707107
v 2.037835 2.884662 0.923879
v 2.104287 2.507792 1.000000
v 2.170740 2.130923 0.923880
v 2.227075 1.811428 0.707107
v 2.264717 1.597948 0.382683
v 2.277936 1.522985 0.000000
vt 0.000000 0.751880
vt 0.062500 0.751880
vt 0.125000 0.751880
vt 0.187500 0.751880
vt 0.250000 0.751880
vt 0.312500 0.751880
vt 0.375000 0.751880
vt 0.437500 0.751880
vt 0.500000 0.751880
vt 0.562500 0.751880
vt 0.625000 0.751880
vt 0.687500 0.751880
vt 0.750000 0.751880
vt 0.812500 0.751880
vt 0.875000 0.751880
vt 0.937500 0.751880
vt 1.000000 0.751880
vt 1.000000 0.000000
vt 0.000000 0.000000
vt 0.062500 0.000000
vt 0.125000 0.000000
vt 0.187500 0.000000
vt 0.250000 0.000000
vt 0.312500 0.000000
vt 0.375000 0.000000
vt 0.437500 0.000000
vt 0.500000 0.000000
vt 0.562500 0.000000
vt 0.625000 0.000000
vt 0.687500 0.000000
vt 0.750000 0.000000
vt 0.812500 0.000000
vt 0.875000 0.000000
vt 0.937500 0.000000
vt 1.000000 0.083542
vt 0.000000 0.083542
vt 0.062500 0.083542
vt 0.125000 0.083542
vt 0.187500 0.083542
vt 0.250000 0.083542
vt 0.312500 0.083542
vt 0.375000 0.083542
vt 0.437500 0.083542
vt 0.500000 0.083542
vt 0.562500 0.083542
vt 0.625000 0.083542
vt 0.687500 0.083542
vt 0.750000 0.083542
vt 0.812500 0.083542
vt 0.875000 0.083542
vt 0.937500 0.083542
vt 1.000000 0.167084
vt 0.000000 0.167084
vt 0.062500 0.167084
vt 0.125000 0.167084
vt 0.187500 0.167084
vt 0.250000 0.167084
vt 0.312500 0.167084
vt 0.375000 0.167084
vt 0.437500 0.167084
vt 0.500000 0.167084
vt 0.562500 0.167084
vt 0.625000 0.167084
vt 0.687500 0.167084
vt 0.750000 0.167084
vt 0.812500 0.167084
vt 0.875000 0.167084
vt 0.937500 0.167084
vt 1.000000 0.250626
vt 0.000000 0.250626
vt 0.062500 0.250626
vt 0.125000 0.250626
vt 0.187500 0.250626
vt 0.250000 0.250626
vt 0.312500 0.250626
vt 0.375000 0.250626
vt 0.437500 0.250626
vt 0.500000 0.250626
vt 0.562500 0.250626
vt 0.625000 0.250626
vt 0.687500 0.250626
vt 0.750000 0.250626
vt 0.812500 0.250626
vt 0.875000 0.250626
vt 0.937500 0.250626
vt 1.000000 0.334169
vt 0.000000 0.334169
vt 0.062500 0.334169
vt 0.125000 0.334169
vt 0.187500 0.334169
vt 0.250000 0.334169
vt 0.312500 0.334169
vt 0.375000 0.334169
vt 0.437500 0.334169
vt 0.500000 0.334169
vt 0.562500 0.334169
vt 0.625000 0.334169
vt 0.687500 0.334169
vt 0.750000 0.334169
vt 0.812500 0.334169
vt 0.875000 0.334169
vt 0.937500 0.334169
vt 1.000000 0.417711
vt 0.000000 0.417711
vt 0.062500 0.417711
vt 0.125000 0.417711
vt 0.187500 0.417711
vt 0.250000 0.417711
vt 0.312500 0.417711
vt 0.375000 0.417711
vt 0.437500 0.417711
vt 0.500000 0.417711
vt 0.562500 0.417711
vt 0.625000 0.417711
vt 0.687500 0.417711
vt 0.750000 0.417711
vt 0.812500 0.417711
vt 0.875000 0.417711
vt 0.937500 0.417711
vt 1.000000 0.501253
vt 0.000000 0.501253
vt 0.062500 0.501253
vt 0.125000 0.501253
vt 0.187500 0.501253
vt 0.250000 0.501253
vt 0.312500 0.501253
vt 0.375000 0.501253
vt 0.437500 0.501253
vt 0.500000 0.501253
vt 0.562500 0.501253
vt 0.625000 0.501253
vt 0.687500 0.501253
vt 0.750000 0.501253
vt 0.812500 0.501253
vt 0.875000 0.501253
vt 0.937500 0.501253
vt 1.000000 0.584795
vt 0.000000 0.584795
vt 0.062500 0.584795
vt 0.125000 0.584795
vt 0.187500 0.584795
vt 0.250000 0.584795
vt 0.312500 0.584795
vt 0.375000 0.584795
vt 0.437500 0.584795
vt 0.500000 0.584795
vt 0.562500 0.584795
vt 0.625000 0.584795
vt 0.687500 0.584795
vt 0.750000 0.584795
vt 0.812500 0.584795
vt 0.875000 0.584795
vt 0.937500 0.584795
vt 1.000000 0.668337
vt 0.000000 0.668337
vt 0.062500 0.668337
vt 0.125000 0.668337
vt 0.187500 0.668337
vt 0.250000 0.668337
vt 0.312500 0.668337
vt 0.375000 0.668337
vt 0.437500 0.668337
vt 0.500000 0.668337
vt 0.562500 0.668337
vt 0.625000 0.668337
vt 0.687500 0.668337
vt 0.750000 0.668337
vt 0.812500 0.668337
vt 0.875000 0.668337
vt 0.937500 0.668337
vn 0.159561 -0.904916 -0.394547
vn 0.120062 -0.680908 -0.722461
vn 0.060380 -0.690151 -0.721142
vn 0.080132 -0.915921 -0.393278
vn 0.062259 -0.353089 -0.933516
vn 0.031352 -0.358360 -0.933057
vn -0.004458 0.025280 -0.999671
vn -0.002246 0.025670 -0.999668
vn -0.069973 0.396835 -0.915219
vn -0.035232 0.402706 -0.914651
vn -0.124740 0.707438 -0.695681
vn -0.062724 0.716937 -0.694311
vn -0.160984 0.912985 -0.374890
vn -0.080843 0.924035 -0.373663
vn -0.173648 0.984808 0.000000
vn -0.087156 0.996195 -0.000000
vn -0.160984 0.912985 0.374889
vn -0.080843 0.924035 0.373662
vn -0.124741 0.707438 0.695680
vn -0.062724 0.716937 0.694310
vn -0.069973 0.396835 0.915219
vn -0.035232 0.402707 0.914651
vn -0.004458 0.025281 0.999671
vn -0.002246 0.025671 0.999668
vn 0.062259 -0.353089 0.933516
vn 0.031352 -0.358359 0.933057
vn 0.120062 -0.680907 0.722461
vn 0.060380 -0.690150 0.721143
vn 0.159561 -0.904916 0.394547
vn 0.080133 -0.915921 0.393279
vn 0.173648 -0.984808 0.000000
vn 0.087156 -0.996195 0.000000
vn 0.915921 -0.080133 -0.393278
vn 0.690150 -0.060380 -0.721143
vn 0.680908 -0.120062 -0.722461
vn 0.904916 -0.159561 -0.394547
vn 0.358360 -0.031352 -0.933057
vn 0.353089 -0.062259 -0.933516
vn -0.025670 0.002246 -0.999668
vn -0.025280 0.004458 -0.999671
vn -0.402706 0.035232 -0.914651
vn -0.396835 0.069973 -0.915219
vn -0.716937 0.062724 -0.694311
vn -0.707438 0.124740 -0.695681
vn -0.924035 0.080842 -0.373663
vn -0.912985 0.160984 -0.374890
vn -0.996195 0.087156 -0.000000
vn -0.984808 0.173648 -0.000000
vn -0.924035 0.080842 0.373662
vn -0.912985 0.160984 0.374889
vn -0.716937 0.062724 0.694310
vn -0.707438 0.124740 0.695680
vn -0.402707 0.035232 0.914651
vn -0.396835 0.069973 0.915219
vn -0.025671 0.002246 0.999668
vn -0.025281 0.004458 0.999671
vn 0.358359 -0.031352 0.933057
vn 0.353089 -0.062259 0.933516
vn 0.690150 -0.060380 0.721143
vn 0.680907 -0.120062 0.722461
vn 0.915921 -0.080133 0.393279
vn 0.904916 -0.159561 0.394547
vn 0.996195 -0.087156 0.000000
vn 0.984808 -0.173648 0.000000
vn 0.649715 -0.236477 -0.722461
vn 0.863461 -0.314274 -0.394547
vn 0.336914 -0.122627 -0.933516
vn -0.024122 0.008780 -0.999671
vn -0.378655 0.137819 -0.915219
vn -0.675030 0.245690 -0.695681
vn -0.871160 0.317076 -0.374890
vn -0.939693 0.342020 -0.000000
vn -0.871161 0.317076 0.374889
vn -0.675030 0.245691 0.695680
vn -0.378656 0.137819 0.915219
vn -0.024123 0.008780 0.999671
vn 0.336913 -0.122626 0.933516
vn 0.649714 -0.236476 0.722461
vn 0.863461 -0.314274 0.394547
vn 0.939693 -0.342020 0.000000
vn 0.598780 -0.345706 -0.722461
vn 0.795770 -0.459438 -0.394547
vn 0.310501 -0.179268 -0.933516
vn -0.022231 0.012835 -0.999671
vn -0.348971 0.201478 -0.915219
vn -0.622110 0.359176 -0.695681
vn -0.802866 0.463535 -0.374890
vn -0.866026 0.500000 -0.000000
vn -0.802866 0.463535 0.374889
vn -0.622111 0.359176 0.695680
vn -0.348971 0.201479 0.915219
vn -0.022232 0.012835 0.999671
vn 0.310501 -0.179268 0.933516
vn 0.598780 -0.345706 0.722461
vn 0.795770 -0.459438 0.394547
vn 0.866026 -0.500000 0.000000
vn 0.529652 -0.444431 -0.722461
vn 0.703900 -0.590642 -0.394547
vn 0.274655 -0.230463 -0.933516
vn -0.019664 0.016500 -0.999671
vn -0.308683 0.259015 -0.915219
vn -0.550289 0.461747 -0.695681
vn -0.710176 0.595909 -0.374890
vn -0.766044 0.642788 -0.000000
vn -0.710177 0.595909 0.374889
vn -0.550289 0.461748 0.695680
vn -0.308683 0.259016 0.915219
vn -0.019665 0.016501 0.999671
vn 0.274654 -0.230462 0.933516
vn 0.529652 -0.444431 0.722461
vn 0.703900 -0.590642 0.394547
vn 0.766045 -0.642788 0.000000
vn 0.444431 -0.529652 -0.722461
vn 0.590642 -0.703900 -0.394547
vn 0.230463 -0.274655 -0.933516
vn -0.016500 0.019664 -0.999671
vn -0.259015 0.308683 -0.915219
vn -0.461747 0.550289 -0.695681
vn -0.595909 0.710176 -0.374890
vn -0.642788 0.766045 -0.000000
vn -0.595909 0.710177 0.374889
vn -0.461748 0.550289 0.695680
vn -0.259016 0.308683 0.915219
vn -0.016501 0.019665 0.999671
vn 0.230462 -0.274654 0.933516
vn 0.444431 -0.529652 0.722461
vn 0.590642 -0.703900 0.394547
vn 0.642787 -0.766045 0.000000
vn 0.345706 -0.598780 -0.722461
vn 0.459438 -0.795770 -0.394547
vn 0.179268 -0.310501 -0.933516
vn -0.012835 0.022231 -0.999671
vn -0.201478 0.348971 -0.915219
vn -0.359176 0.622110 -0.695680
vn -0.463535 0.802866 -0.374890
vn -0.500000 0.866025 -0.000000
vn -0.463535 0.802866 0.374889
vn -0.359176 0.622111 0.695680
vn -0.201479 0.348971 0.915219
vn -0.012835 0.022232 0.999671
vn 0.179268 -0.310501 0.933516
vn 0.345706 -0.598780 0.722461
vn 0.459438 -0.795770 0.394547
vn 0.500000 -0.866026 0.000000
vn 0.236477 -0.649715 -0.722461
vn 0.314274 -0.863461 -0.394547
vn 0.122627 -0.336914 -0.933516
vn -0.008780 0.024122 -0.999671
vn -0.137819 0.378655 -0.915219
vn -0.245691 0.675029 -0.695681
vn -0.317077 0.871160 -0.374890
vn -0.342020 0.939693 -0.000000
vn -0.317076 0.871160 0.374889
vn -0.245691 0.675030 0.695680
vn -0.137819 0.378656 0.915219
vn -0.008780 0.024123 0.999671
vn 0.122626 -0.336913 0.933516
vn 0.236477 -0.649714 0.722461
vn 0.314274 -0.863461 0.394547
vn 0.342020 -0.939693 0.000000
s 1
g PipeThin_90
usemtl initialShadingGroup
f 145/155/1 146/156/2 2/2/3 1/1/4
f 146/156/2 147/157/5 3/3/6 2/2/3
f 147/157/5 148/158/7 4/4/8 3/3/6
f 148/158/7 149/159/9 5/5/10 4/4/8
f 149/159/9 150/160/11 6/6/12 5/5/10
f 150/160/11 151/161/13 7/7/14 6/6/12
f 151/161/13 152/162/15 8/8/16 7/7/14
f 152/162/15 153/163/17 9/9/18 8/8/16
f 153/163/17 154/164/19 10/10/20 9/9/18
f 154/164/19 155/165/21 11/11/22 10/10/20
f 155/165/21 156/166/23 12/12/24 11/11/22
f 156/166/23 157/167/25 13/13/26 12/12/24
f 157/167/25 158/168/27 14/14/28 13/13/26
f 158/168/27 159/169/29 15/15/30 14/14/28
f 159/169/29 160/170/31 16/16/32 15/15/30
f 160/170/31 145/154/1 1/17/4 16/16/32
f 17/19/33 18/20/34 34/37/35 33/36/36
f 18/20/34 19/21/37 35/38/38 34/37/35
f 19/21/37 20/22/39 36/39/40 35/38/38
f 20/22/39 21/23/41 37/40/42 36/39/40
f 21/23/41 22/24/43 38/41/44 37/40/42
f 22/24/43 23/25/45 39/42/46 38/41/44
f 23/25/45 24/26/47 40/43/48 39/42/46
f 24/26/47 25/27/49 41/44/50 40/43/48
f 25/27/49 26/28/51 42/45/52 41/44/50
f 26/28/51 27/29/53 43/46/54 42/45/52
f 27/29/53 28/30/55 44/47/56 43/46/54
f 28/30/55 29/31/57 45/48/58 44/47/56
f 29/31/57 30/32/59 46/49/60 45/48/58
f 30/32/59 31/33/61 47/50/62 46/49/60
f 31/33/61 32/34/63 48/51/64 47/50/62
f 32/34/63 17/18/33 33/35/36 48/51/64
f 33/36/36 34/37/35 50/54/65 49/53/66
f 34/37/35 35/38/38 51/55/67 50/54/65
f 35/38/38 36/39/40 52/56/68 51/55/67
f 36/39/40 37/40/42 53/57/69 52/56/68
f 37/40/42 38/41/44 54/58/70 53/57/69
f 38/41/44 39/42/46 55/59/71 54/58/70
f 39/42/46 40/43/48 56/60/72 55/59/71
f 40/43/48 41/44/50 57/61/73 56/60/72
f 41/44/50 42/45/52 58/62/74 57/61/73
f 42/45/52 43/46/54 59/63/75 58/62/74
f 43/46/54 44/47/56 60/64/76 59/63/75
f 44/47/56 45/48/58 61/65/77 60/64/76
f 45/48/58 46/49/60 62/66/78 61/65/77
f 46/49/60 47/50/62 63/67/79 62/66/78
f 47/50/62 48/51/64 64/68/80 63/67/79
f 48/51/64 33/35/36 49/52/66 64/68/80
f 49/53/66 50/54/65 66/71/81 65/70/82
f 50/54/65 51/55/67 67/72/83 66/71/81
f 51/55/67 52/56/68 68/73/84 67/72/83
f 52/56/68 53/57/69 69/74/85 68/73/84
f 53/57/69 54/58/70 70/75/86 69/74/85
f 54/58/70 55/59/71 71/76/87 70/75/86
f 55/59/71 56/60/72 72/77/88 71/76/87
f 56/60/72 57/61/73 73/78/89 72/77/88
f 57/61/73 58/62/74 74/79/90 73/78/89
f 58/62/74 59/63/75 75/80/91 74/79/90
f 59/63/75 60/64/76 76/81/92 75/80/91
f 60/64/76 61/65/77 77/82/93 76/81/92
f 61/65/77 62/66/78 78/83/94 77/82/93
f 62/66/78 63/67/79 79/84/95 78/83/94
f 63/67/79 64/68/80 80/85/96 79/84/95
f 64/68/80 49/52/66 65/69/82 80/85/96
f 65/70/82 66/71/81 82/88/97 81/87/98
f 66/71/81 67/72/83 83/89/99 82/88/97
f 67/72/83 68/73/84 84/90/100 83/89/99
f 68/73/84 69/74/85 85/91/101 84/90/100
f 69/74/85 70/75/86 86/92/102 85/91/101
f 70/75/86 71/76/87 87/93/103 86/92/102
f 71/76/87 72/77/88 88/94/104 87/93/103
f 72/77/88 73/78/89 89/95/105 88/94/104
f 73/78/89 74/79/90 90/96/106 89/95/105
f 74/79/90 75/80/91 91/97/107 90/96/106
f 75/80/91 76/81/92 92/98/108 91/97/107
f 76/81/92 77/82/93 93/99/109 92/98/108
f 77/82/93 78/83/94 94/100/110 93/99/109
f 78/83/94 79/84/95 95/101/111 94/100/110
f 79/84/95 80/85/96 96/102/112 95/101/111
f 80/85/96 65/69/82 81/86/98 96/102/112
f 81/87/98 82/88/97 98/105/113 97/104/114
f 82/88/97 83/89/99 99/106/115 98/105/113
f 83/89/99 84/90/100 100/107/116 99/106/115
f 84/90/100 85/91/101 101/108/117 100/107/116
f 85/91/101 86/92/102 102/109/118 101/108/117
f 86/92/102 87/93/103 103/110/119 102/109/118
f 87/93/103 88/94/104 104/111/120 103/110/119
f 88/94/104 89/95/105 105/112/121 104/111/120
f 89/95/105 90/96/106 106/113/122 105/112/121
f 90/96/106 91/97/107 107/114/123 106/113/122
f 91/97/107 92/98/108 108/115/124 107/114/123
f 92/98/108 93/99/109 109/116/125 108/115/124
f 93/99/109 94/100/110 110/117/126 109/116/125
f 94/100/110 95/101/111 111/118/127 110/117/126
f 95/101/111 96/102/112 112/119/128 111/118/127
f 96/102/112 81/86/98 97/103/114 112/119/128
f 97/104/114 98/105/113 114/122/129 113/121/130
f 98/105/113 99/106/115 115/123/131 114/122/129
f 99/106/115 100/107/116 116/124/132 115/123/131
f 100/107/116 101/108/117 117/125/133 116/124/132
f 101/108/117 102/109/118 118/126/134 117/125/133
f 102/109/118 103/110/119 119/127/135 118/126/134
f 103/110/119 104/111/120 120/128/136 119/127/135
f 104/111/120 105/112/121 121/129/137 120/128/136
f 105/112/121 106/113/122 122/130/138 121/129/137
f 106/113/122 107/114/123 123/131/139 122/130/138
f 107/114/123 108/115/124 124/132/140 123/131/139
f 108/115/124 109/116/125 125/133/141 124/132/140
f 109/116/125 110/117/126 126/134/142 125/133/141
f 110/117/126 111/118/127 127/135/143 126/134/142
f 111/118/127 112/119/128 128/136/144 127/135/143
f 112/119/128 97/103/114 113/120/130 128/136/144
f 113/121/130 114/122/129 130/139/145 129/138/146
f 114/122/129 115/123/131 131/140/147 130/139/145
f 115/123/131 116/124/132 132/141/148 131/140/147
f 116/124/132 117/125/133 133/142/149 132/141/148
f 117/125/133 118/126/134 134/143/150 133/142/149
f 118/126/134 119/127/135 135/144/151 134/143/150
f 119/127/135 120/128/136 136/145/152 135/144/151
f 120/128/136 121/129/137 137/146/153 136/145/152
f 121/129/137 122/130/138 138/147/154 137/146/153
f 122/130/138 123/131/139 139/148/155 138/147/154
f 123/131/139 124/132/140 140/149/156 139/148/155
f 124/132/140 125/133/141 141/150/157 140/149/156
f 125/133/141 126/134/142 142/151/158 141/150/157
f 126/134/142 127/135/143 143/152/159 142/151/158
f 127/135/143 128/136/144 144/153/160 143/152/159
f 128/136/144 113/120/130 129/137/146 144/153/160
f 129/138/146 130/139/145 146/156/2 145/155/1
f 130/139/145 131/140/147 147/157/5 146/156/2
f 131/140/147 132/141/148 148/158/7 147/157/5
f 132/141/148 133/142/149 149/159/9 148/158/7
f 133/142/149 134/143/150 150/160/11 149/159/9
f 134/143/150 135/144/151 151/161/13 150/160/11
f 135/144/151 136/145/152 152/162/15 151/161/13
f 136/145/152 137/146/153 153/163/17 152/162/15
f 137/146/153 138/147/154 154/164/19 153/163/17
f 138/147/154 139/148/155 155/165/21 154/164/19
f 139/148/155 140/149/156 156/166/23 155/165/21
f 140/149/156 141/150/157 157/167/25 156/166/23
f 141/150/157 142/151/158 158/168/27 157/167/25
f 142/151/158 143/152/159 159/169/29 158/168/27
f 143/152/159 144/153/160 160/170/31 159/169/29
f 144/153/160 129/137/146 145/154/1 160/170/31
