# This file uses centimeters as units for non-parametric coordinates.

mtllib PipeThin_X.mtl
g default
v -0.707107 1.292893 0.707107
v -2.000000 1.292893 0.707107
v -2.000000 1.076120 0.382683
v -0.923880 1.076120 0.382683
v -0.923880 0.000000 0.382683
v -0.707107 0.000000 0.707107
v 0.000001 2.000000 -1.000000
v -2.000000 2.000000 -1.000000
v -2.000000 2.382684 -0.923879
v -0.382683 2.382683 -0.923880
v 0.382684 0.000000 -0.923879
v 0.000001 0.000000 -1.000000
v 0.382683 1.617317 -0.923880
v -2.000000 2.707107 -0.707106
v -0.707107 2.707107 -0.707107
v 0.707107 0.000000 -0.707106
v 0.707107 1.292893 -0.707107
v -0.382684 1.617316 0.923879
v -2.000000 1.617316 0.923879
v -0.382684 0.000000 0.923879
v -2.000000 2.923880 -0.382683
v -0.923880 2.923879 -0.382683
v 0.923880 0.000000 -0.382683
v 0.923879 1.076121 -0.382683
v -0.000000 2.000000 1.000000
v -2.000000 2.000000 1.000000
v -0.000000 0.000000 1.000000
v 2.000000 2.000000 -1.000000
v 2.000000 1.617317 -0.923880
v -0.382683 4.000000 -0.923880
v 0.000001 4.000000 -1.000000
v -0.382683 2.382683 0.923879
v -2.000000 2.382683 0.923879
v 0.382683 0.000000 0.923880
v 0.382683 1.617317 0.923880
v -2.000000 3.000000 0.000000
v -1.000000 3.000000 -0.000000
v 1.000000 0.000000 0.000000
v 1.000000 1.000000 -0.000000
v 2.000000 2.382684 -0.923879
v 0.382684 2.382684 -0.923879
v 0.382684 4.000000 -0.923879
v -0.707106 4.000000 -0.707107
v 2.000000 1.292894 -0.707107
v 0.923880 0.000000 0.382683
v 0.923880 1.076120 0.382683
v -2.000000 2.923880 0.382683
v -0.923880 2.923880 0.382683
v -0.923879 4.000000 -0.382684
v 2.000000 1.076121 -0.382684
v 2.000000 2.707107 -0.707106
v 0.707107 2.707107 -0.707106
v 0.707107 4.000000 -0.707106
v -2.000000 2.707107 0.707107
v -0.707107 2.707107 0.707107
v 0.707107 0.000000 0.707107
v 0.707107 1.292893 0.707107
v -1.000000 4.000000 -0.000000
v 2.000000 1.000000 -0.000000
v 2.000000 2.923880 -0.382683
v 0.923880 2.923880 -0.382683
v 0.923880 4.000000 -0.382683
v 2.000000 1.076120 0.382683
v -0.923880 4.000000 0.382683
v 2.000000 2.000000 1.000000
v 2.000000 2.382683 0.923880
v 0.382683 2.382683 0.923880
v 0.382683 4.000000 0.923880
v -0.000000 4.000000 1.000000
v 2.000000 3.000000 0.000000
v 1.000000 3.000000 0.000000
v 1.000000 4.000000 0.000000
v 2.000000 2.707107 0.707107
v 0.707107 2.707107 0.707107
v 0.707107 4.000000 0.707107
v 0.923880 4.000000 0.382683
v 0.923880 2.923880 0.382683
v 2.000000 2.923880 0.382683
v 2.000000 1.292893 0.707107
v -0.707107 4.000000 0.707107
v -0.382684 4.000000 0.923879
v 2.000000 1.617316 0.923879
v -0.382683 0.000000 -0.923880
v -0.382683 1.617317 -0.923880
v -2.000000 1.617317 -0.923880
v -1.000000 0.000000 -0.000000
v -1.000000 1.000000 -0.000000
v -2.000000 1.000000 -0.000000
v -0.707106 0.000000 -0.707107
v -0.707106 1.292894 -0.707107
v -2.000000 1.292894 -0.707107
v -0.923879 0.000000 -0.382684
v -0.923879 1.076121 -0.382684
v -2.000000 1.076121 -0.382684
vt 0.250457 0.251695
vt 0.012377 0.251695
vt 0.012377 0.196533
vt 0.195301 0.196533
vt 0.195301 0.013654
vt 0.250457 0.013654
vt 0.371332 0.372609
vt 0.371332 0.013659
vt 0.433318 0.013659
vt 0.433318 0.310608
vt 0.012382 0.434609
vt 0.012382 0.372609
vt 0.309345 0.434609
vt 0.492217 0.013659
vt 0.492217 0.251706
vt 0.012382 0.493511
vt 0.250446 0.493511
vt 0.309354 0.310598
vt 0.012377 0.310598
vt 0.309354 0.013654
vt 0.547375 0.013659
vt 0.547375 0.196546
vt 0.012382 0.548672
vt 0.195288 0.548672
vt 0.371332 0.372609
vt 0.012377 0.372609
vt 0.371332 0.013654
vt 0.371332 0.731558
vt 0.309345 0.731558
vt 0.730281 0.310608
vt 0.730281 0.372609
vt 0.309322 0.434586
vt 0.012377 0.434586
vt 0.433342 0.013654
vt 0.433342 0.310631
vt 0.600206 0.013659
vt 0.142421 0.601469
vt 0.600242 0.013654
vt 0.142457 0.601505
vt 0.433333 0.731558
vt 0.433333 0.434595
vt 0.730281 0.434595
vt 0.730281 0.251706
vt 0.250446 0.731558
vt 0.547407 0.013654
vt 0.547407 0.196577
vt 0.012377 0.548639
vt 0.195256 0.548639
vt 0.730281 0.196546
vt 0.195288 0.731558
vt 0.492234 0.731558
vt 0.492234 0.493494
vt 0.730281 0.493494
vt 0.012377 0.493483
vt 0.250418 0.493483
vt 0.492245 0.013654
vt 0.492245 0.251734
vt 0.142421 0.731563
vt 0.142457 0.731558
vt 0.547395 0.731558
vt 0.547395 0.548652
vt 0.730281 0.548652
vt 0.730286 0.196578
vt 0.195256 0.731563
vt 0.730286 0.372609
vt 0.730286 0.434619
vt 0.433309 0.434619
vt 0.433309 0.731563
vt 0.371332 0.731563
vt 0.730286 0.601519
vt 0.600192 0.601519
vt 0.730281 0.601483
vt 0.730286 0.493522
vt 0.492206 0.493522
vt 0.492206 0.731563
vt 0.547363 0.731563
vt 0.547363 0.548684
vt 0.730286 0.548684
vt 0.730286 0.251734
vt 0.250418 0.731563
vt 0.309322 0.731563
vt 0.730286 0.310631
vt 0.012382 0.310622
vt 0.309331 0.310622
vt 0.309331 0.013659
vt 0.012382 0.143734
vt 0.142435 0.143734
vt 0.012377 0.143698
vt 0.012382 0.251723
vt 0.250429 0.251723
vt 0.250429 0.013659
vt 0.012382 0.196565
vt 0.195269 0.196565
vt 0.195269 0.013659
vt 0.142435 0.013659
vt 0.142471 0.143698
vt 0.142471 0.013654
vt 0.600192 0.731563
vt 0.600228 0.601483
vt 0.600228 0.731558
vt 0.730286 0.143748
vt 0.600242 0.143748
vt 0.012382 0.601505
vt 0.600206 0.143712
vt 0.730281 0.143712
vt 0.012377 0.601469
vn 0.000000 -0.641737 0.766924
vn 0.000000 -0.692544 0.721376
vn 0.000000 -0.918785 0.394758
vn 0.000000 -0.902469 0.430755
vn -0.918785 0.000000 0.394758
vn -0.692544 0.000000 0.721376
vn -0.641737 0.000000 0.766924
vn -0.902469 0.000000 0.430755
vn 0.000000 0.000000 -1.000000
vn 0.000000 0.000000 -1.000000
vn 0.000000 0.362692 -0.931909
vn -0.144039 0.144040 -0.979033
vn 0.362692 0.000000 -0.931909
vn 0.000000 -0.000000 -1.000000
vn 0.144040 -0.144039 -0.979033
vn 0.000000 0.692544 -0.721375
vn 0.000000 0.641737 -0.766925
vn 0.692544 0.000000 -0.721376
vn 0.641737 0.000000 -0.766925
vn -0.144040 -0.144040 0.979033
vn 0.000000 -0.362692 0.931909
vn -0.362692 0.000000 0.931909
vn 0.000000 0.918785 -0.394758
vn 0.000000 0.902469 -0.430756
vn 0.918785 0.000000 -0.394758
vn 0.902469 0.000000 -0.430756
vn -0.000000 0.000000 1.000000
vn 0.000000 0.000000 1.000000
vn 0.000000 0.000000 1.000000
vn 0.000000 0.000000 -1.000000
vn -0.000000 -0.362692 -0.931909
vn -0.362692 -0.000000 -0.931909
vn 0.000000 -0.000000 -1.000000
vn -0.144040 0.144040 0.979033
vn 0.000000 0.362692 0.931909
vn 0.362692 0.000000 0.931909
vn 0.144040 -0.144040 0.979033
vn 0.000000 1.000000 -0.000000
vn 0.000000 1.000000 -0.000000
vn 1.000000 0.000000 0.000000
vn 1.000000 0.000000 0.000000
vn 0.000000 0.362692 -0.931909
vn 0.144040 0.144040 -0.979033
vn 0.362692 0.000000 -0.931909
vn -0.641737 -0.000000 -0.766925
vn -0.692544 -0.000000 -0.721376
vn -0.000000 -0.692544 -0.721376
vn -0.000000 -0.641737 -0.766925
vn 0.918785 0.000000 0.394758
vn 0.902469 0.000000 0.430756
vn 0.000000 0.918785 0.394759
vn 0.000000 0.902468 0.430756
vn -0.902468 -0.000000 -0.430756
vn -0.918785 -0.000000 -0.394759
vn -0.000000 -0.918785 -0.394759
vn -0.000000 -0.902469 -0.430756
vn 0.000000 0.692544 -0.721375
vn 0.000000 0.641738 -0.766924
vn 0.692544 0.000000 -0.721375
vn 0.641738 0.000000 -0.766924
vn 0.000000 0.692544 0.721376
vn 0.000000 0.641737 0.766925
vn 0.692544 0.000000 0.721376
vn 0.641737 0.000000 0.766925
vn -1.000000 -0.000000 -0.000000
vn -1.000000 -0.000000 -0.000000
vn -0.000000 -1.000000 -0.000000
vn -0.000000 -1.000000 -0.000000
vn 0.000000 0.918785 -0.394758
vn 0.000000 0.902469 -0.430755
vn 0.918785 0.000000 -0.394758
vn 0.902469 0.000000 -0.430755
vn -0.000000 -0.918785 0.394758
vn -0.000000 -0.902469 0.430756
vn -0.902469 -0.000000 0.430756
vn -0.918785 -0.000000 0.394758
vn -0.000000 -0.000000 1.000000
vn -0.000000 0.362692 0.931909
vn 0.144039 0.144039 0.979033
vn 0.362692 -0.000000 0.931909
vn -0.000000 -0.000000 1.000000
vn 0.000000 1.000000 0.000000
vn 0.000000 1.000000 0.000000
vn 1.000000 0.000000 0.000000
vn 1.000000 0.000000 0.000000
vn 0.000000 0.692544 0.721376
vn 0.000000 0.641737 0.766925
vn 0.641737 0.000000 0.766925
vn 0.692544 0.000000 0.721376
vn 0.918785 0.000000 0.394758
vn 0.902469 0.000000 0.430756
vn 0.000000 0.918785 0.394758
vn 0.000000 0.902469 0.430756
vn -0.000000 -0.692544 0.721376
vn -0.000000 -0.641737 0.766925
vn -0.641737 -0.000000 0.766925
vn -0.692544 -0.000000 0.721376
vn -0.362692 -0.000000 0.931909
vn -0.000000 -0.362692 0.931909
vn -0.362691 0.000000 -0.931909
vn -0.144039 -0.144039 -0.979033
vn 0.000000 -0.362691 -0.931909
vn -1.000000 0.000000 -0.000000
vn -1.000000 0.000000 -0.000000
vn 0.000000 -1.000000 -0.000000
vn 0.000000 -1.000000 -0.000000
vn -0.692544 0.000000 -0.721376
vn -0.641737 0.000000 -0.766925
vn 0.000000 -0.641737 -0.766925
vn 0.000000 -0.692544 -0.721376
vn -0.918785 0.000000 -0.394759
vn -0.902468 0.000000 -0.430756
vn 0.000000 -0.918785 -0.394759
vn 0.000000 -0.902468 -0.430756
s 1
g PipeThin_X
usemtl initialShadingGroup
f 1/1/1 2/2/2 3/3/3 4/4/4
f 5/5/5 6/6/6 1/1/7 4/4/8
f 7/7/9 8/8/10 9/9/11 10/10/12
f 11/11/13 12/12/14 7/7/9 13/13/15
f 10/10/12 9/9/11 14/14/16 15/15/17
f 16/16/18 11/11/13 13/13/15 17/17/19
f 18/18/20 19/19/21 2/2/2 1/1/1
f 6/6/6 20/20/22 18/18/20 1/1/7
f 15/15/17 14/14/16 21/21/23 22/22/24
f 23/23/25 16/16/18 17/17/19 24/24/26
f 25/25/27 26/26/28 19/19/21 18/18/20
f 20/20/22 27/27/29 25/25/27 18/18/20
f 28/28/30 29/29/31 13/13/15 7/7/9
f 10/10/12 30/30/32 31/31/33 7/7/9
f 32/32/34 33/33/35 26/26/28 25/25/27
f 27/27/29 34/34/36 35/35/37 25/25/27
f 22/22/24 21/21/23 36/36/38 37/104/39
f 38/103/40 23/23/25 24/24/26 39/39/41
f 40/40/42 28/28/30 7/7/9 41/41/43
f 7/7/9 31/31/33 42/42/44 41/41/43
f 15/15/45 43/43/46 30/30/32 10/10/12
f 29/29/31 44/44/47 17/17/48 13/13/15
f 45/45/49 38/38/40 39/102/41 46/46/50
f 37/37/39 36/106/38 47/47/51 48/48/52
f 22/22/53 49/49/54 43/43/46 15/15/45
f 44/44/47 50/50/55 24/24/56 17/17/48
f 51/51/57 40/40/42 41/41/43 52/52/58
f 41/41/43 42/42/44 53/53/59 52/52/60
f 48/48/52 47/47/51 54/54/61 55/55/62
f 56/56/63 45/45/49 46/46/50 57/57/64
f 37/104/65 58/105/66 49/49/54 22/22/53
f 50/50/55 59/59/67 39/39/68 24/24/56
f 55/55/62 54/54/61 33/33/35 32/32/34
f 34/34/36 56/56/63 57/57/64 35/35/37
f 60/60/69 51/51/57 52/52/58 61/61/70
f 52/52/60 53/53/59 62/62/71 61/61/72
f 59/101/67 63/63/73 46/46/74 39/102/68
f 48/48/75 64/64/76 58/58/66 37/37/65
f 65/65/77 66/66/78 67/67/79 25/25/27
f 67/67/79 68/68/80 69/69/81 25/25/27
f 70/100/82 60/60/69 61/61/70 71/99/83
f 61/61/72 62/62/71 72/72/84 71/99/85
f 66/66/78 73/73/86 74/74/87 67/67/79
f 74/74/88 75/75/89 68/68/80 67/67/79
f 71/71/85 72/98/84 76/76/90 77/77/91
f 78/78/92 70/70/82 71/71/83 77/77/93
f 63/63/73 79/79/94 57/57/95 46/46/74
f 55/55/96 80/80/97 64/64/76 48/48/75
f 73/73/86 78/78/92 77/77/93 74/74/87
f 77/77/91 76/76/90 75/75/89 74/74/88
f 32/32/34 81/81/98 80/80/97 55/55/96
f 79/79/94 82/82/99 35/35/37 57/57/95
f 25/25/27 69/69/81 81/81/98 32/32/34
f 82/82/99 65/65/77 25/25/27 35/35/37
f 12/12/14 83/83/100 84/84/101 7/7/9
f 84/84/101 85/85/102 8/8/10 7/7/9
f 86/97/103 5/5/5 4/4/8 87/96/104
f 4/4/4 3/3/3 88/88/105 87/96/106
f 83/83/100 89/89/107 90/90/108 84/84/101
f 90/90/109 91/91/110 85/85/102 84/84/101
f 92/92/111 86/86/103 87/87/104 93/93/112
f 87/87/106 88/95/105 94/94/113 93/93/114
f 89/89/107 92/92/111 93/93/112 90/90/108
f 93/93/114 94/94/113 91/91/110 90/90/109
