# This file uses centimeters as units for non-parametric coordinates.

mtllib SUS_Chamber.mtl
g default
v -2.416993 0.137253 -0.463168
v -2.416992 0.137253 -0.304681
v -2.416993 0.000000 -0.225438
v -2.416992 -0.137253 -0.304681
v -2.416992 -0.137253 -0.463168
v -2.416992 0.000000 -0.542411
v 0.458433 0.137253 -0.463168
v 0.458433 0.137253 -0.304681
v 0.458433 0.000000 -0.225438
v 0.458433 -0.137253 -0.304681
v 0.458433 -0.137253 -0.463168
v 0.458433 0.000000 -0.542411
v -2.416993 -0.424562 0.230456
v -2.416992 -0.312495 0.118390
v -2.416993 -0.159409 0.159409
v -2.416992 -0.118390 0.312495
v -2.416992 -0.230456 0.424562
v -2.416992 -0.383543 0.383543
v 0.458433 -0.424562 0.230456
v 0.458433 -0.312495 0.118390
v 0.458433 -0.159409 0.159409
v 0.458433 -0.118390 0.312495
v 0.458433 -0.230456 0.424562
v 0.458433 -0.383543 0.383543
v -2.416993 -0.230456 -0.424562
v -2.416992 -0.118390 -0.312495
v -2.416993 -0.159409 -0.159409
v -2.416992 -0.312495 -0.118390
v -2.416992 -0.424562 -0.230456
v -2.416992 -0.383543 -0.383543
v 0.458433 -0.230456 -0.424562
v 0.458433 -0.118390 -0.312495
v 0.458433 -0.159409 -0.159409
v 0.458433 -0.312495 -0.118390
v 0.458433 -0.424562 -0.230456
v 0.458433 -0.383543 -0.383543
v -2.416993 0.424562 -0.230456
v -2.416992 0.312495 -0.118390
v -2.416993 0.159409 -0.159409
v -2.416992 0.118390 -0.312495
v -2.416992 0.230456 -0.424562
v -2.416992 0.383543 -0.383543
v 0.458433 0.424562 -0.230456
v 0.458433 0.312495 -0.118390
v 0.458433 0.159409 -0.159409
v 0.458433 0.118390 -0.312495
v 0.458433 0.230456 -0.424562
v 0.458433 0.383543 -0.383543
v -2.416993 -0.137253 0.463168
v -2.416992 -0.137253 0.304681
v -2.416993 0.000000 0.225438
v -2.416992 0.137253 0.304681
v -2.416992 0.137253 0.463168
v -2.416992 0.000000 0.542411
v 0.458433 -0.137253 0.463168
v 0.458433 -0.137253 0.304681
v 0.458433 0.000000 0.225438
v 0.458433 0.137253 0.304681
v 0.458433 0.137253 0.463168
v 0.458433 0.000000 0.542411
v -2.416993 0.463168 0.137253
v -2.416992 0.304681 0.137253
v -2.416993 0.225438 0.000000
v -2.416992 0.304681 -0.137253
v -2.416992 0.463168 -0.137253
v -2.416992 0.542411 -0.000000
v 0.458433 0.463168 0.137253
v 0.458433 0.304681 0.137253
v 0.458433 0.225438 0.000000
v 0.458433 0.304681 -0.137253
v 0.458433 0.463168 -0.137253
v 0.458433 0.542411 -0.000000
v -2.416993 0.230456 0.424562
v -2.416992 0.118390 0.312495
v -2.416993 0.159409 0.159409
v -2.416992 0.312495 0.118390
v -2.416992 0.424562 0.230456
v -2.416992 0.383543 0.383543
v 0.458433 0.230456 0.424562
v 0.458433 0.118390 0.312495
v 0.458433 0.159409 0.159409
v 0.458433 0.312495 0.118390
v 0.458433 0.424562 0.230456
v 0.458433 0.383543 0.383543
v -2.416993 -0.463168 -0.137253
v -2.416992 -0.304682 -0.137253
v -2.416993 -0.225438 -0.000000
v -2.416992 -0.304682 0.137253
v -2.416992 -0.463168 0.137253
v -2.416992 -0.542411 -0.000000
v 0.458433 -0.463168 -0.137253
v 0.458433 -0.304682 -0.137253
v 0.458433 -0.225438 -0.000000
v 0.458433 -0.304682 0.137253
v 0.458433 -0.463168 0.137253
v 0.458433 -0.542411 -0.000000
v -2.416993 -0.463168 -0.137253
v -2.416992 -0.304682 -0.137253
v -2.416993 -0.225438 -0.000000
v -2.416992 -0.304682 0.137253
v -2.416992 -0.463168 0.137253
v -2.416992 -0.542411 0.000000
v 0.458433 -0.463168 -0.137253
v 0.458433 -0.304682 -0.137253
v 0.458433 -0.225438 -0.000000
v 0.458433 -0.304682 0.137253
v 0.458433 -0.463168 0.137253
v 0.458433 -0.542411 0.000000
vt 0.375000 0.312500
vt 0.416667 0.312500
vt 0.458333 0.312500
vt 0.500000 0.312500
vt 0.541667 0.312500
vt 0.583333 0.312500
vt 0.625000 0.312500
vt 0.375000 0.688440
vt 0.416667 0.688440
vt 0.458333 0.688440
vt 0.500000 0.688440
vt 0.541667 0.688440
vt 0.583333 0.688440
vt 0.625000 0.688440
vt 0.375000 0.312500
vt 0.416667 0.312500
vt 0.416667 0.688440
vt 0.375000 0.688440
vt 0.458333 0.312500
vt 0.458333 0.688440
vt 0.500000 0.312500
vt 0.500000 0.688440
vt 0.541667 0.312500
vt 0.541667 0.688440
vt 0.583333 0.312500
vt 0.583333 0.688440
vt 0.625000 0.312500
vt 0.625000 0.688440
vt 0.375000 0.312500
vt 0.416667 0.312500
vt 0.416667 0.688440
vt 0.375000 0.688440
vt 0.458333 0.312500
vt 0.458333 0.688440
vt 0.500000 0.312500
vt 0.500000 0.688440
vt 0.541667 0.312500
vt 0.541667 0.688440
vt 0.583333 0.312500
vt 0.583333 0.688440
vt 0.625000 0.312500
vt 0.625000 0.688440
vt 0.375000 0.312500
vt 0.416667 0.312500
vt 0.416667 0.688440
vt 0.375000 0.688440
vt 0.458333 0.312500
vt 0.458333 0.688440
vt 0.500000 0.312500
vt 0.500000 0.688440
vt 0.541667 0.312500
vt 0.541667 0.688440
vt 0.583333 0.312500
vt 0.583333 0.688440
vt 0.625000 0.312500
vt 0.625000 0.688440
vt 0.375000 0.312500
vt 0.416667 0.312500
vt 0.416667 0.688440
vt 0.375000 0.688440
vt 0.458333 0.312500
vt 0.458333 0.688440
vt 0.500000 0.312500
vt 0.500000 0.688440
vt 0.541667 0.312500
vt 0.541667 0.688440
vt 0.583333 0.312500
vt 0.583333 0.688440
vt 0.625000 0.312500
vt 0.625000 0.688440
vt 0.375000 0.312500
vt 0.416667 0.312500
vt 0.416667 0.688440
vt 0.375000 0.688440
vt 0.458333 0.312500
vt 0.458333 0.688440
vt 0.500000 0.312500
vt 0.500000 0.688440
vt 0.541667 0.312500
vt 0.541667 0.688440
vt 0.583333 0.312500
vt 0.583333 0.688440
vt 0.625000 0.312500
vt 0.625000 0.688440
vt 0.375000 0.312500
vt 0.416667 0.312500
vt 0.416667 0.688440
vt 0.375000 0.688440
vt 0.458333 0.312500
vt 0.458333 0.688440
vt 0.500000 0.312500
vt 0.500000 0.688440
vt 0.541667 0.312500
vt 0.541667 0.688440
vt 0.583333 0.312500
vt 0.583333 0.688440
vt 0.625000 0.312500
vt 0.625000 0.688440
vt 0.375000 0.312500
vt 0.416667 0.312500
vt 0.416667 0.688440
vt 0.375000 0.688440
vt 0.458333 0.312500
vt 0.458333 0.688440
vt 0.500000 0.312500
vt 0.500000 0.688440
vt 0.541667 0.312500
vt 0.541667 0.688440
vt 0.583333 0.312500
vt 0.583333 0.688440
vt 0.625000 0.312500
vt 0.625000 0.688440
vt 0.375000 0.312500
vt 0.416667 0.312500
vt 0.416667 0.688440
vt 0.375000 0.688440
vt 0.458333 0.312500
vt 0.458333 0.688440
vt 0.500000 0.312500
vt 0.500000 0.688440
vt 0.541667 0.312500
vt 0.541667 0.688440
vt 0.583333 0.312500
vt 0.583333 0.688440
vt 0.625000 0.312500
vt 0.625000 0.688440
vn 0.000000 1.000000 -0.000003
vn 0.000000 1.000000 -0.000003
vn 0.000000 1.000000 -0.000003
vn 0.000000 1.000000 -0.000003
vn 0.000000 0.500000 0.866025
vn 0.000000 0.500000 0.866025
vn 0.000000 0.500000 0.866025
vn 0.000000 0.500000 0.866025
vn 0.000000 -0.500000 0.866026
vn 0.000000 -0.500000 0.866026
vn 0.000000 -0.500000 0.866026
vn 0.000000 -0.500000 0.866026
vn 0.000000 -1.000000 0.000000
vn 0.000000 -1.000000 0.000000
vn 0.000000 -1.000000 0.000000
vn 0.000000 -1.000000 0.000000
vn 0.000000 -0.500000 -0.866025
vn 0.000000 -0.500000 -0.866025
vn 0.000000 -0.500000 -0.866025
vn 0.000000 -0.500000 -0.866025
vn 0.000000 0.500001 -0.866025
vn 0.000000 0.500001 -0.866025
vn 0.000000 0.500001 -0.866025
vn 0.000000 0.500001 -0.866025
vn 0.000000 -0.707107 -0.707107
vn 0.000000 -0.707107 -0.707107
vn 0.000000 -0.707107 -0.707107
vn 0.000000 -0.707107 -0.707107
vn 0.000000 0.258819 -0.965926
vn 0.000000 0.258819 -0.965926
vn 0.000000 0.258819 -0.965926
vn 0.000000 0.258819 -0.965926
vn 0.000000 0.965926 -0.258820
vn 0.000000 0.965926 -0.258820
vn 0.000000 0.965926 -0.258820
vn 0.000000 0.965926 -0.258820
vn 0.000000 0.707107 0.707106
vn 0.000000 0.707107 0.707106
vn 0.000000 0.707107 0.707106
vn 0.000000 0.707107 0.707106
vn 0.000000 -0.258819 0.965926
vn 0.000000 -0.258819 0.965926
vn 0.000000 -0.258819 0.965926
vn 0.000000 -0.258819 0.965926
vn 0.000000 -0.965926 0.258820
vn 0.000000 -0.965926 0.258820
vn 0.000000 -0.965926 0.258820
vn 0.000000 -0.965926 0.258820
vn 0.000000 0.707107 -0.707107
vn 0.000000 0.707107 -0.707107
vn 0.000000 0.707107 -0.707107
vn 0.000000 0.707107 -0.707107
vn 0.000000 0.965926 0.258820
vn 0.000000 0.965926 0.258820
vn 0.000000 0.965926 0.258820
vn 0.000000 0.965926 0.258820
vn 0.000000 0.258819 0.965926
vn 0.000000 0.258819 0.965926
vn 0.000000 0.258819 0.965926
vn 0.000000 0.258819 0.965926
vn 0.000000 -0.707107 0.707107
vn 0.000000 -0.707107 0.707107
vn 0.000000 -0.707107 0.707107
vn 0.000000 -0.707107 0.707107
vn 0.000000 -0.965926 -0.258820
vn 0.000000 -0.965926 -0.258820
vn 0.000000 -0.965926 -0.258820
vn 0.000000 -0.965926 -0.258820
vn 0.000000 -0.258819 -0.965926
vn 0.000000 -0.258819 -0.965926
vn 0.000000 -0.258819 -0.965926
vn 0.000000 -0.258819 -0.965926
vn 0.000000 0.707105 0.707108
vn 0.000000 0.707105 0.707108
vn 0.000000 0.707105 0.707108
vn 0.000000 0.707105 0.707108
vn 0.000000 -0.258819 0.965926
vn 0.000000 -0.258819 0.965926
vn 0.000000 -0.258819 0.965926
vn 0.000000 -0.258819 0.965926
vn 0.000000 -0.965926 0.258817
vn 0.000000 -0.965926 0.258817
vn 0.000000 -0.965926 0.258817
vn 0.000000 -0.965926 0.258817
vn 0.000000 -0.707107 -0.707106
vn 0.000000 -0.707107 -0.707106
vn 0.000000 -0.707107 -0.707106
vn 0.000000 -0.707107 -0.707106
vn 0.000000 0.258819 -0.965926
vn 0.000000 0.258819 -0.965926
vn 0.000000 0.258819 -0.965926
vn 0.000000 0.258819 -0.965926
vn 0.000000 0.965926 -0.258820
vn 0.000000 0.965926 -0.258820
vn 0.000000 0.965926 -0.258820
vn 0.000000 0.965926 -0.258820
vn 0.000000 -1.000000 0.000000
vn 0.000000 -1.000000 0.000000
vn 0.000000 -1.000000 0.000000
vn 0.000000 -1.000000 0.000000
vn 0.000000 -0.500000 -0.866025
vn 0.000000 -0.500000 -0.866025
vn 0.000000 -0.500000 -0.866025
vn 0.000000 -0.500000 -0.866025
vn 0.000000 0.500000 -0.866026
vn 0.000000 0.500000 -0.866025
vn 0.000000 0.500000 -0.866026
vn 0.000000 0.500000 -0.866026
vn 0.000000 1.000000 0.000000
vn 0.000000 1.000000 0.000000
vn 0.000000 1.000000 0.000000
vn 0.000000 1.000000 0.000000
vn 0.000000 0.500000 0.866025
vn 0.000000 0.500000 0.866025
vn 0.000000 0.500000 0.866025
vn 0.000000 0.500000 0.866025
vn 0.000000 -0.500000 0.866026
vn 0.000000 -0.500000 0.866026
vn 0.000000 -0.500000 0.866026
vn 0.000000 -0.500000 0.866026
vn 0.000000 0.000000 1.000000
vn 0.000000 0.000000 1.000000
vn 0.000000 0.000000 1.000000
vn 0.000000 0.000000 1.000000
vn 0.000000 -0.866026 0.500000
vn 0.000000 -0.866026 0.500000
vn 0.000000 -0.866026 0.500000
vn 0.000000 -0.866026 0.500000
vn 0.000000 -0.866026 -0.500000
vn 0.000000 -0.866026 -0.500000
vn 0.000000 -0.866026 -0.500000
vn 0.000000 -0.866026 -0.500000
vn 0.000000 0.000000 -1.000000
vn 0.000000 0.000000 -1.000000
vn 0.000000 0.000000 -1.000000
vn 0.000000 0.000000 -1.000000
vn 0.000000 0.866026 -0.500000
vn 0.000000 0.866026 -0.500000
vn 0.000000 0.866026 -0.500000
vn 0.000000 0.866026 -0.500000
vn 0.000000 0.866025 0.500000
vn 0.000000 0.866025 0.500000
vn 0.000000 0.866025 0.500000
vn 0.000000 0.866025 0.500000
vn 0.000000 -0.707107 0.707107
vn 0.000000 -0.707107 0.707107
vn 0.000000 -0.707107 0.707107
vn 0.000000 -0.707107 0.707107
vn 0.000000 -0.965926 -0.258817
vn 0.000000 -0.965926 -0.258817
vn 0.000000 -0.965926 -0.258817
vn 0.000000 -0.965926 -0.258817
vn 0.000000 -0.258819 -0.965926
vn 0.000000 -0.258819 -0.965926
vn 0.000000 -0.258819 -0.965926
vn 0.000000 -0.258819 -0.965926
vn 0.000000 0.707106 -0.707108
vn 0.000000 0.707106 -0.707108
vn 0.000000 0.707106 -0.707108
vn 0.000000 0.707106 -0.707108
vn 0.000000 0.965926 0.258820
vn 0.000000 0.965926 0.258820
vn 0.000000 0.965926 0.258820
vn 0.000000 0.965926 0.258820
vn 0.000000 0.258819 0.965926
vn 0.000000 0.258819 0.965926
vn 0.000000 0.258819 0.965926
vn 0.000000 0.258819 0.965926
vn -0.000000 -0.000000 -1.000000
vn -0.000000 -0.000000 -1.000000
vn -0.000000 -0.000000 -1.000000
vn -0.000000 -0.000000 -1.000000
vn 0.000000 0.866024 -0.500002
vn 0.000000 0.866024 -0.500002
vn 0.000000 0.866024 -0.500002
vn 0.000000 0.866024 -0.500002
vn 0.000000 0.866024 0.500002
vn 0.000000 0.866024 0.500002
vn 0.000000 0.866024 0.500002
vn 0.000000 0.866024 0.500002
vn 0.000000 0.000000 1.000000
vn 0.000000 0.000000 1.000000
vn 0.000000 0.000000 1.000000
vn 0.000000 0.000000 1.000000
vn 0.000000 -0.866026 0.499999
vn 0.000000 -0.866026 0.499999
vn 0.000000 -0.866026 0.499999
vn 0.000000 -0.866026 0.499999
vn 0.000000 -0.866025 -0.500000
vn 0.000000 -0.866025 -0.500000
vn 0.000000 -0.866025 -0.500000
vn 0.000000 -0.866025 -0.500000
vn -0.000000 -0.000000 -1.000000
vn -0.000000 -0.000000 -1.000000
vn -0.000000 -0.000000 -1.000000
vn -0.000000 -0.000000 -1.000000
vn 0.000000 0.866024 -0.500002
vn 0.000000 0.866024 -0.500002
vn 0.000000 0.866024 -0.500002
vn 0.000000 0.866024 -0.500002
vn 0.000000 0.866024 0.500002
vn 0.000000 0.866024 0.500002
vn 0.000000 0.866024 0.500002
vn 0.000000 0.866024 0.500002
vn 0.000000 0.000000 1.000000
vn 0.000000 0.000000 1.000000
vn 0.000000 0.000000 1.000000
vn 0.000000 0.000000 1.000000
vn 0.000000 -0.866026 0.499999
vn 0.000000 -0.866026 0.499999
vn 0.000000 -0.866026 0.499999
vn 0.000000 -0.866026 0.499999
vn 0.000000 -0.866025 -0.500000
vn 0.000000 -0.866025 -0.500000
vn 0.000000 -0.866025 -0.500000
vn 0.000000 -0.866025 -0.500000
s off
g SUSchamber SUS
usemtl initialShadingGroup
f 1/1/1 2/2/2 8/9/3 7/8/4
f 2/2/5 3/3/6 9/10/7 8/9/8
f 3/3/9 4/4/10 10/11/11 9/10/12
f 4/4/13 5/5/14 11/12/15 10/11/16
f 5/5/17 6/6/18 12/13/19 11/12/20
f 6/6/21 1/7/22 7/14/23 12/13/24
f 13/15/25 14/16/26 20/17/27 19/18/28
f 14/16/29 15/19/30 21/20/31 20/17/32
f 15/19/33 16/21/34 22/22/35 21/20/36
f 16/21/37 17/23/38 23/24/39 22/22/40
f 17/23/41 18/25/42 24/26/43 23/24/44
f 18/25/45 13/27/46 19/28/47 24/26/48
f 25/29/49 26/30/50 32/31/51 31/32/52
f 26/30/53 27/33/54 33/34/55 32/31/56
f 27/33/57 28/35/58 34/36/59 33/34/60
f 28/35/61 29/37/62 35/38/63 34/36/64
f 29/37/65 30/39/66 36/40/67 35/38/68
f 30/39/69 25/41/70 31/42/71 36/40/72
f 37/43/73 38/44/74 44/45/75 43/46/76
f 38/44/77 39/47/78 45/48/79 44/45/80
f 39/47/81 40/49/82 46/50/83 45/48/84
f 40/49/85 41/51/86 47/52/87 46/50/88
f 41/51/89 42/53/90 48/54/91 47/52/92
f 42/53/93 37/55/94 43/56/95 48/54/96
f 49/57/97 50/58/98 56/59/99 55/60/100
f 50/58/101 51/61/102 57/62/103 56/59/104
f 51/61/105 52/63/106 58/64/107 57/62/108
f 52/63/109 53/65/110 59/66/111 58/64/112
f 53/65/113 54/67/114 60/68/115 59/66/116
f 54/67/117 49/69/118 55/70/119 60/68/120
f 61/71/121 62/72/122 68/73/123 67/74/124
f 62/72/125 63/75/126 69/76/127 68/73/128
f 63/75/129 64/77/130 70/78/131 69/76/132
f 64/77/133 65/79/134 71/80/135 70/78/136
f 65/79/137 66/81/138 72/82/139 71/80/140
f 66/81/141 61/83/142 67/84/143 72/82/144
f 73/85/145 74/86/146 80/87/147 79/88/148
f 74/86/149 75/89/150 81/90/151 80/87/152
f 75/89/153 76/91/154 82/92/155 81/90/156
f 76/91/157 77/93/158 83/94/159 82/92/160
f 77/93/161 78/95/162 84/96/163 83/94/164
f 78/95/165 73/97/166 79/98/167 84/96/168
f 85/99/169 86/100/170 92/101/171 91/102/172
f 86/100/173 87/103/174 93/104/175 92/101/176
f 87/103/177 88/105/178 94/106/179 93/104/180
f 88/105/181 89/107/182 95/108/183 94/106/184
f 89/107/185 90/109/186 96/110/187 95/108/188
f 90/109/189 85/111/190 91/112/191 96/110/192
f 97/113/193 98/114/194 104/115/195 103/116/196
f 98/114/197 99/117/198 105/118/199 104/115/200
f 99/117/201 100/119/202 106/120/203 105/118/204
f 100/119/205 101/121/206 107/122/207 106/120/208
f 101/121/209 102/123/210 108/124/211 107/122/212
f 102/123/213 97/125/214 103/126/215 108/124/216
