# Blender v2.80 (sub 75) OBJ File: 'SHROOM1.blend'
# www.blender.org
mtllib shroom_1.mtl
o Stems_Circle
v 0.000000 0.000000 -1.500000
v -0.881678 0.000000 -1.213526
v -1.426585 0.000000 -0.463525
v -1.426585 0.000000 0.463526
v -0.881678 0.000000 1.213526
v 0.000000 0.000000 1.500000
v 0.881678 0.000000 1.213525
v 1.426585 0.000000 0.463526
v 1.426585 0.000000 -0.463526
v 0.881678 0.000000 -1.213526
v 0.000000 1.759888 -1.430820
v -0.617175 1.759888 -1.230288
v -0.998609 1.759888 -0.705288
v -0.998609 1.759888 -0.056352
v -0.617174 1.759888 0.468648
v 0.000000 1.759888 0.669180
v 0.617175 1.759888 0.468648
v 0.998609 1.759888 -0.056352
v 0.998609 1.759888 -0.705288
v 0.617174 1.759888 -1.230288
v 0.000000 2.425347 -1.363124
v -0.531998 2.425347 -1.190268
v -0.860791 2.425347 -0.737723
v -0.860791 2.425347 -0.178347
v -0.531998 2.425347 0.274198
v 0.000000 2.425347 0.447055
v 0.531998 2.425347 0.274198
v 0.860791 2.425347 -0.178347
v 0.860791 2.425347 -0.737723
v 0.531998 2.425347 -1.190268
v 0.000000 3.344584 -1.155181
v -0.512087 3.344584 -0.988794
v -0.828574 3.344584 -0.553187
v -0.828574 3.344584 -0.014747
v -0.512087 3.344584 0.420860
v 0.000000 3.344584 0.587247
v 0.512087 3.344584 0.420860
v 0.828574 3.344584 -0.014747
v 0.828574 3.344584 -0.553187
v 0.512087 3.344584 -0.988794
v 0.000000 4.078465 -0.901769
v -0.469995 4.078465 -0.749058
v -0.760467 4.078465 -0.349257
v -0.760467 4.078465 0.144925
v -0.469994 4.078465 0.544726
v 0.000000 4.078465 0.697437
v 0.469995 4.078465 0.544726
v 0.760467 4.078465 0.144925
v 0.760467 4.078465 -0.349257
v 0.469994 4.078465 -0.749058
v 0.000000 5.082769 -0.912989
v -0.390252 5.082769 -0.786189
v -0.631440 5.082769 -0.454221
v -0.631440 5.082769 -0.043886
v -0.390252 5.082769 0.288082
v 0.000000 5.082769 0.414883
v 0.390252 5.082769 0.288082
v 0.631441 5.082769 -0.043886
v 0.631441 5.082769 -0.454221
v 0.390252 5.082769 -0.786189
v 0.000000 5.731590 -0.897326
v -0.259760 5.719920 -0.813735
v -0.420301 5.689368 -0.594892
v -0.420301 5.651605 -0.324387
v -0.259760 5.621054 -0.105545
v 0.000000 5.609384 -0.021954
v 0.259760 5.621054 -0.105545
v 0.420301 5.651605 -0.324387
v 0.420301 5.689368 -0.594892
v 0.259760 5.719920 -0.813735
vt 0.000000 0.000000
vt 0.000000 0.000000
vt 0.000000 0.000000
vt 0.000000 0.000000
vt 0.000000 0.000000
vt 0.000000 0.000000
vt 0.000000 0.000000
vt 0.000000 0.000000
vt 0.000000 0.000000
vt 0.000000 0.000000
vt 0.000000 0.000000
vt 0.000000 0.000000
vt 0.000000 0.000000
vt 0.000000 0.000000
vt 0.000000 0.000000
vt 0.000000 0.000000
vt 0.000000 0.000000
vt 0.000000 0.000000
vt 0.000000 0.000000
vt 0.000000 0.000000
vt 0.000000 0.000000
vt 0.000000 0.000000
vt 0.000000 0.000000
vt 0.000000 0.000000
vt 0.000000 0.000000
vt 0.000000 0.000000
vt 0.000000 0.000000
vt 0.000000 0.000000
vt 0.000000 0.000000
vt 0.000000 0.000000
vt 0.000000 0.000000
vt 0.000000 0.000000
vt 0.000000 0.000000
vt 0.000000 0.000000
vt 0.000000 0.000000
vt 0.000000 0.000000
vt 0.000000 0.000000
vt 0.000000 0.000000
vt 0.000000 0.000000
vt 0.000000 0.000000
vt 0.000000 0.000000
vt 0.000000 0.000000
vt 0.000000 0.000000
vt 0.000000 0.000000
vt 0.000000 0.000000
vt 0.000000 0.000000
vt 0.000000 0.000000
vt 0.000000 0.000000
vt 0.000000 0.000000
vt 0.000000 0.000000
vt 0.000000 0.000000
vt 0.000000 0.000000
vt 0.000000 0.000000
vt 0.000000 0.000000
vt 0.000000 0.000000
vt 0.000000 0.000000
vt 0.000000 0.000000
vt 0.000000 0.000000
vt 0.000000 0.000000
vt 0.000000 0.000000
vt 0.000000 0.000000
vt 0.000000 0.000000
vt 0.000000 0.000000
vt 0.000000 0.000000
vt 0.000000 0.000000
vt 0.000000 0.000000
vt 0.000000 0.000000
vt 0.000000 0.000000
vt 0.000000 0.000000
vt 0.000000 0.000000
vn 0.0000 -1.0000 0.0000
vn -0.8013 0.1376 -0.5822
vn -0.8036 0.1152 -0.5839
vn 0.8036 0.1152 -0.5839
vn 0.2819 0.4096 0.8676
vn -0.9717 0.2363 0.0000
vn 0.3088 0.0374 -0.9504
vn 0.7587 0.3473 0.5512
vn -0.7587 0.3473 0.5512
vn -0.3088 0.0374 -0.9504
vn 0.9717 0.2363 0.0000
vn -0.2819 0.4096 0.8676
vn 0.3058 -0.1435 0.9412
vn 0.8013 0.1376 -0.5822
vn 0.2945 0.3026 0.9065
vn -0.9792 0.2028 0.0000
vn 0.3076 0.0963 -0.9466
vn 0.7800 0.2654 0.5667
vn -0.7800 0.2654 0.5667
vn -0.3076 0.0963 -0.9466
vn 0.9792 0.2028 0.0000
vn -0.2945 0.3026 0.9065
vn -0.9957 0.0924 0.0000
vn -0.9994 0.0350 0.0000
vn 0.3021 0.2103 -0.9298
vn 0.8067 -0.0760 0.5861
vn -0.8067 -0.0760 0.5861
vn -0.3021 0.2103 -0.9298
vn 0.9994 0.0350 0.0000
vn -0.3058 -0.1435 0.9412
vn -0.8005 0.1448 -0.5816
vn 0.8005 0.1448 -0.5816
vn 0.3090 -0.0106 -0.9510
vn 0.2936 0.3120 -0.9036
vn 0.8079 -0.0527 0.5870
vn -0.8079 -0.0527 0.5870
vn -0.2936 0.3120 -0.9036
vn 0.9957 0.0924 0.0000
vn -0.3059 -0.1414 0.9415
vn -0.7870 0.2319 -0.5718
vn 0.7870 0.2319 -0.5718
vn 0.3059 -0.1414 0.9415
vn 0.6736 0.5248 0.5204
vn 0.7910 0.2097 0.5747
vn -0.7910 0.2097 0.5747
vn -0.3090 -0.0106 -0.9510
vn 0.9918 0.1274 0.0000
vn -0.2985 0.2585 0.9187
vn -0.8083 0.0425 -0.5873
vn 0.8083 0.0425 -0.5873
vn 0.2985 0.2585 0.9187
vn -0.9918 0.1274 0.0000
vn -0.6736 0.5248 0.5204
vn -0.3082 0.0225 -0.9510
vn 0.9387 0.3441 0.0191
vn -0.2326 0.6157 0.7529
vn -0.8034 0.1425 -0.5781
vn 0.8034 0.1425 -0.5781
vn 0.2326 0.6157 0.7529
vn -0.9387 0.3441 0.0191
vn 0.3082 0.0225 -0.9510
usemtl None
s off
f 2/1/1 1/2/1 10/3/1 9/4/1 8/5/1 7/6/1 6/7/1 5/8/1 4/9/1 3/10/1
f 12/11/2 13/12/2 23/13/2 22/14/2
f 2/1/3 3/10/3 13/12/3 12/11/3
f 9/4/4 10/3/4 20/15/4 19/16/4
f 6/7/5 7/6/5 17/17/5 16/18/5
f 3/10/6 4/9/6 14/19/6 13/12/6
f 10/3/7 1/2/7 11/20/7 20/15/7
f 7/6/8 8/5/8 18/21/8 17/17/8
f 4/9/9 5/8/9 15/22/9 14/19/9
f 1/2/10 2/1/10 12/11/10 11/20/10
f 8/5/11 9/4/11 19/16/11 18/21/11
f 5/8/12 6/7/12 16/18/12 15/22/12
f 26/23/13 27/24/13 37/25/13 36/26/13
f 19/16/14 20/15/14 30/27/14 29/28/14
f 16/18/15 17/17/15 27/24/15 26/23/15
f 13/12/16 14/19/16 24/29/16 23/13/16
f 20/15/17 11/20/17 21/30/17 30/27/17
f 17/17/18 18/21/18 28/31/18 27/24/18
f 14/19/19 15/22/19 25/32/19 24/29/19
f 11/20/20 12/11/20 22/14/20 21/30/20
f 18/21/21 19/16/21 29/28/21 28/31/21
f 15/22/22 16/18/22 26/23/22 25/32/22
f 33/33/23 34/34/23 44/35/23 43/36/23
f 23/13/24 24/29/24 34/34/24 33/33/24
f 30/27/25 21/30/25 31/37/25 40/38/25
f 27/24/26 28/31/26 38/39/26 37/25/26
f 24/29/27 25/32/27 35/40/27 34/34/27
f 21/30/28 22/14/28 32/41/28 31/37/28
f 28/31/29 29/28/29 39/42/29 38/39/29
f 25/32/30 26/23/30 36/26/30 35/40/30
f 22/14/31 23/13/31 33/33/31 32/41/31
f 29/28/32 30/27/32 40/38/32 39/42/32
f 50/43/33 41/44/33 51/45/33 60/46/33
f 40/38/34 31/37/34 41/44/34 50/43/34
f 37/25/35 38/39/35 48/47/35 47/48/35
f 34/34/36 35/40/36 45/49/36 44/35/36
f 31/37/37 32/41/37 42/50/37 41/44/37
f 38/39/38 39/42/38 49/51/38 48/47/38
f 35/40/39 36/26/39 46/52/39 45/49/39
f 32/41/40 33/33/40 43/36/40 42/50/40
f 39/42/41 40/38/41 50/43/41 49/51/41
f 36/26/42 37/25/42 47/48/42 46/52/42
f 57/53/43 58/54/43 68/55/43 67/56/43
f 47/48/44 48/47/44 58/54/44 57/53/44
f 44/35/45 45/49/45 55/57/45 54/58/45
f 41/44/46 42/50/46 52/59/46 51/45/46
f 48/47/47 49/51/47 59/60/47 58/54/47
f 45/49/48 46/52/48 56/61/48 55/57/48
f 42/50/49 43/36/49 53/62/49 52/59/49
f 49/51/50 50/43/50 60/46/50 59/60/50
f 46/52/51 47/48/51 57/53/51 56/61/51
f 43/36/52 44/35/52 54/58/52 53/62/52
f 54/58/53 55/57/53 65/63/53 64/64/53
f 51/45/54 52/59/54 62/65/54 61/66/54
f 58/54/55 59/60/55 69/67/55 68/55/55
f 55/57/56 56/61/56 66/68/56 65/63/56
f 52/59/57 53/62/57 63/69/57 62/65/57
f 59/60/58 60/46/58 70/70/58 69/67/58
f 56/61/59 57/53/59 67/56/59 66/68/59
f 53/62/60 54/58/60 64/64/60 63/69/60
f 60/46/61 51/45/61 61/66/61 70/70/61
o Cap_Circle.001
v -0.015496 6.292755 -3.624993
v -1.962085 6.205306 -2.998583
v -3.165143 5.976360 -1.358618
v -3.165143 5.693369 0.668489
v -1.962085 5.464424 2.308453
v -0.015495 5.376975 2.934863
v 1.931094 5.464424 2.308452
v 3.134152 5.693369 0.668489
v 3.134152 5.976360 -1.358619
v 1.931093 6.205306 -2.998584
v -0.015495 5.678015 -4.699097
v -2.575841 5.562993 -3.875181
v -4.158222 5.261861 -1.718138
v -4.158222 4.889643 0.948113
v -2.575841 4.588511 3.105155
v -0.015495 4.473490 3.929071
v 2.544850 4.588512 3.105154
v 4.127231 4.889643 0.948113
v 4.127231 5.261861 -1.718139
v 2.544849 5.562993 -3.875182
v -0.015496 5.864629 -3.335796
v -1.766742 5.785956 -2.772246
v -2.849072 5.579985 -1.296854
v -2.849072 5.325393 0.526829
v -1.766742 5.119422 2.002220
v -0.015495 5.040749 2.565769
v 1.735750 5.119422 2.002219
v 2.818080 5.325393 0.526829
v 2.818080 5.579985 -1.296855
v 1.735749 5.785956 -2.772248
v 0.107978 6.621472 -3.130001
v -1.546649 6.547139 -2.597544
v -2.569264 6.352532 -1.203552
v -2.569264 6.111985 0.519516
v -1.546648 5.917379 1.913507
v 0.107979 5.843046 2.445964
v 1.762605 5.917379 1.913506
v 2.785221 6.111985 0.519516
v 2.785221 6.352532 -1.203552
v 1.762604 6.547139 -2.597545
v 0.107978 7.042787 -1.803321
v -0.759284 7.003826 -1.524237
v -1.295281 6.901824 -0.793585
v -1.295281 6.775743 0.109549
v -0.759283 6.673741 0.840200
v 0.107978 6.634780 1.119284
v 0.975240 6.673741 0.840200
v 1.511237 6.775743 0.109549
v 1.511237 6.901824 -0.793585
v 0.975239 7.003826 -1.524237
v 0.104342 7.183127 -0.777556
v -0.179281 7.170386 -0.686286
v -0.354569 7.137029 -0.447339
v -0.354569 7.095796 -0.151985
v -0.179281 7.062438 0.086962
v 0.104342 7.049696 0.178232
v 0.387965 7.062438 0.086962
v 0.563254 7.095796 -0.151985
v 0.563254 7.137029 -0.447339
v 0.387965 7.170386 -0.686286
v -0.015496 5.841694 -1.682926
v -0.785787 5.807090 -1.435046
v -1.261854 5.716493 -0.786090
v -1.261854 5.604509 0.016064
v -0.785787 5.513913 0.665020
v -0.015495 5.479308 0.912899
v 0.754796 5.513913 0.665019
v 1.230863 5.604509 0.016064
v 1.230863 5.716493 -0.786090
v 0.754796 5.807090 -1.435047
vt 0.000000 0.000000
vt 0.000000 0.000000
vt 0.000000 0.000000
vt 0.000000 0.000000
vt 0.000000 0.000000
vt 0.000000 0.000000
vt 0.000000 0.000000
vt 0.000000 0.000000
vt 0.000000 0.000000
vt 0.000000 0.000000
vt 0.000000 0.000000
vt 0.000000 0.000000
vt 0.000000 0.000000
vt 0.000000 0.000000
vt 0.000000 0.000000
vt 0.000000 0.000000
vt 0.000000 0.000000
vt 0.000000 0.000000
vt 0.000000 0.000000
vt 0.000000 0.000000
vt 0.000000 0.000000
vt 0.000000 0.000000
vt 0.000000 0.000000
vt 0.000000 0.000000
vt 0.000000 0.000000
vt 0.000000 0.000000
vt 0.000000 0.000000
vt 0.000000 0.000000
vt 0.000000 0.000000
vt 0.000000 0.000000
vt 0.000000 0.000000
vt 0.000000 0.000000
vt 0.000000 0.000000
vt 0.000000 0.000000
vt 0.000000 0.000000
vt 0.000000 0.000000
vt 0.000000 0.000000
vt 0.000000 0.000000
vt 0.000000 0.000000
vt 0.000000 0.000000
vt 0.000000 0.000000
vt 0.000000 0.000000
vt 0.000000 0.000000
vt 0.000000 0.000000
vt 0.000000 0.000000
vt 0.000000 0.000000
vt 0.000000 0.000000
vt 0.000000 0.000000
vt 0.000000 0.000000
vt 0.000000 0.000000
vt 0.000000 0.000000
vt 0.000000 0.000000
vt 0.000000 0.000000
vt 0.000000 0.000000
vt 0.000000 0.000000
vt 0.000000 0.000000
vt 0.000000 0.000000
vt 0.000000 0.000000
vt 0.000000 0.000000
vt 0.000000 0.000000
vt 0.000000 0.000000
vt 0.000000 0.000000
vt 0.000000 0.000000
vt 0.000000 0.000000
vt 0.000000 0.000000
vt 0.000000 0.000000
vt 0.000000 0.000000
vt 0.000000 0.000000
vt 0.000000 0.000000
vt 0.000000 0.000000
vn -0.1950 0.8512 -0.4872
vn 0.0819 -0.9202 -0.3829
vn 0.6064 0.7875 0.1099
vn -0.1802 0.7280 0.6615
vn -0.5028 0.8264 -0.2535
vn 0.5028 0.8264 -0.2535
vn 0.1802 0.7280 0.6615
vn -0.6064 0.7875 0.1099
vn 0.1950 0.8512 -0.4872
vn 0.4788 0.7502 0.4560
vn -0.4788 0.7502 0.4560
vn -0.1051 -0.9926 -0.0614
vn 0.2268 -0.9735 0.0304
vn -0.2268 -0.9735 0.0304
vn -0.0819 -0.9202 -0.3829
vn 0.2742 -0.9524 -0.1330
vn -0.0878 -0.9869 0.1351
vn -0.2172 -0.9322 -0.2894
vn 0.2172 -0.9322 -0.2894
vn 0.0878 -0.9869 0.1351
vn -0.2742 -0.9524 -0.1330
vn -0.2007 0.8384 -0.5067
vn 0.7486 0.6566 0.0917
vn -0.1778 0.7343 0.6551
vn -0.4758 0.8488 -0.2306
vn 0.6110 0.7106 -0.3490
vn 0.1952 0.6848 0.7021
vn -0.5515 0.8261 0.1153
vn 0.2211 0.7861 -0.5772
vn 0.5655 0.6514 0.5058
vn -0.4426 0.7846 0.4342
vn 0.3563 0.9250 -0.1322
vn 0.1253 0.8519 0.5084
vn -0.4265 0.8958 0.1251
vn 0.1389 0.9439 -0.2997
vn 0.3344 0.8682 0.3665
vn -0.3344 0.8682 0.3665
vn -0.1389 0.9439 -0.2997
vn 0.4265 0.8958 0.1251
vn -0.1253 0.8519 0.5084
vn -0.3563 0.9250 -0.1322
vn 0.0883 0.9116 0.4016
vn -0.2860 0.9490 0.1325
vn 0.0877 0.9870 -0.1347
vn 0.2304 0.9262 0.2983
vn -0.2317 0.9256 0.2992
vn -0.0879 0.9869 -0.1353
vn 0.2840 0.9496 0.1326
vn -0.0885 0.9113 0.4021
vn -0.2308 0.9724 -0.0335
vn 0.2295 0.9728 -0.0325
vn 0.0000 0.9904 0.1383
vn -0.0000 -0.9904 -0.1383
vn -0.0391 -0.9658 -0.2563
vn 0.1286 -0.9822 -0.1371
vn -0.0404 -0.9991 -0.0139
vn -0.1030 -0.9720 -0.2112
vn 0.1030 -0.9720 -0.2112
vn 0.0404 -0.9991 -0.0139
vn -0.1286 -0.9822 -0.1371
vn 0.0391 -0.9658 -0.2563
vn 0.1051 -0.9926 -0.0614
usemtl None
s off
f 71/71/62 81/72/62 82/73/62 72/74/62
f 85/75/63 95/76/63 96/77/63 86/78/63
f 78/79/64 88/80/64 89/81/64 79/82/64
f 75/83/65 85/75/65 86/78/65 76/84/65
f 72/74/66 82/73/66 83/85/66 73/86/66
f 79/82/67 89/81/67 90/87/67 80/88/67
f 76/84/68 86/78/68 87/89/68 77/90/68
f 73/86/69 83/85/69 84/91/69 74/92/69
f 80/88/70 90/87/70 81/72/70 71/71/70
f 77/90/71 87/89/71 88/80/71 78/79/71
f 74/92/72 84/91/72 85/75/72 75/83/72
f 99/93/73 139/94/73 140/95/73 100/96/73
f 82/73/74 92/97/74 93/98/74 83/85/74
f 89/81/75 99/93/75 100/96/75 90/87/75
f 86/78/76 96/77/76 97/99/76 87/89/76
f 83/85/77 93/98/77 94/100/77 84/91/77
f 90/87/78 100/96/78 91/101/78 81/72/78
f 87/89/79 97/99/79 98/102/79 88/80/79
f 84/91/80 94/100/80 95/76/80 85/75/80
f 81/72/81 91/101/81 92/97/81 82/73/81
f 88/80/82 98/102/82 99/93/82 89/81/82
f 71/71/83 72/74/83 102/103/83 101/104/83
f 79/82/84 109/105/84 108/106/84 78/79/84
f 76/84/85 106/107/85 105/108/85 75/83/85
f 73/86/86 103/109/86 102/103/86 72/74/86
f 80/88/87 110/110/87 109/105/87 79/82/87
f 77/90/88 107/111/88 106/107/88 76/84/88
f 74/92/89 104/112/89 103/109/89 73/86/89
f 71/71/90 101/104/90 110/110/90 80/88/90
f 78/79/91 108/106/91 107/111/91 77/90/91
f 75/83/92 105/108/92 104/112/92 74/92/92
f 110/110/93 120/113/93 119/114/93 109/105/93
f 107/111/94 117/115/94 116/116/94 106/107/94
f 104/112/95 114/117/95 113/118/95 103/109/95
f 101/104/96 111/119/96 120/113/96 110/110/96
f 108/106/97 118/120/97 117/115/97 107/111/97
f 105/108/98 115/121/98 114/117/98 104/112/98
f 101/104/99 102/103/99 112/122/99 111/119/99
f 109/105/100 119/114/100 118/120/100 108/106/100
f 106/107/101 116/116/101 115/121/101 105/108/101
f 103/109/102 113/118/102 112/122/102 102/103/102
f 117/115/103 127/123/103 126/124/103 116/116/103
f 114/117/104 124/125/104 123/126/104 113/118/104
f 111/119/105 121/127/105 130/128/105 120/113/105
f 118/120/106 128/129/106 127/123/106 117/115/106
f 115/121/107 125/130/107 124/125/107 114/117/107
f 111/119/108 112/122/108 122/131/108 121/127/108
f 119/114/109 129/132/109 128/129/109 118/120/109
f 116/116/110 126/124/110 125/130/110 115/121/110
f 113/118/111 123/126/111 122/131/111 112/122/111
f 120/113/112 130/128/112 129/132/112 119/114/112
f 122/131/113 123/126/113 124/125/113 125/130/113 126/124/113 127/123/113 128/129/113 129/132/113 130/128/113 121/127/113
f 132/133/114 131/134/114 140/95/114 139/94/114 138/135/114 137/136/114 136/137/114 135/138/114 134/139/114 133/140/114
f 96/77/115 136/137/115 137/136/115 97/99/115
f 93/98/116 133/140/116 134/139/116 94/100/116
f 100/96/117 140/95/117 131/134/117 91/101/117
f 97/99/118 137/136/118 138/135/118 98/102/118
f 94/100/119 134/139/119 135/138/119 95/76/119
f 91/101/120 131/134/120 132/133/120 92/97/120
f 98/102/121 138/135/121 139/94/121 99/93/121
f 95/76/122 135/138/122 136/137/122 96/77/122
f 92/97/123 132/133/123 133/140/123 93/98/123
