# This file uses centimeters as units for non-parametric coordinates.

mtllib PipeThin_End.mtl
g default
v -0.923880 0.000000 -0.382683
v -0.707107 0.000000 -0.707106
v -0.382684 0.000000 -0.923879
v -0.000001 0.000000 -1.000000
v 0.382683 0.000000 -0.923880
v 0.707106 0.000000 -0.707107
v 0.923879 0.000000 -0.382684
v 1.000000 0.000000 -0.000000
v 0.923880 0.000000 0.382683
v 0.707107 0.000000 0.707107
v 0.382684 0.000000 0.923879
v 0.000000 0.000000 1.000000
v -0.382683 0.000000 0.923880
v -0.707107 0.000000 0.707107
v -0.923880 0.000000 0.382683
v -1.000000 0.000000 0.000000
v -0.722830 2.000000 -0.299405
v -0.553229 2.000000 -0.553229
v -0.299405 2.000000 -0.722830
v -0.000000 2.000000 -0.782384
v 0.299405 2.000000 -0.722830
v 0.553229 2.000000 -0.553229
v 0.722830 2.000000 -0.299405
v 0.782384 2.000000 -0.000000
v 0.722830 2.000000 0.299405
v 0.553229 2.000000 0.553229
v 0.299406 2.000000 0.722830
v 0.000000 2.000000 0.782384
v -0.299405 2.000000 0.722830
v -0.553229 2.000000 0.553229
v -0.722830 2.000000 0.299405
v -0.782384 2.000000 0.000000
v -0.923880 1.654058 -0.382683
v -0.707107 1.654058 -0.707106
v -0.382684 1.654058 -0.923879
v -0.000001 1.654058 -1.000000
v 0.382683 1.654058 -0.923880
v 0.707106 1.654058 -0.707107
v 0.923879 1.654058 -0.382684
v 1.000000 1.654058 -0.000000
v 0.923880 1.654058 0.382683
v 0.707107 1.654058 0.707107
v 0.382684 1.654058 0.923879
v 0.000000 1.654058 1.000000
v -0.382683 1.654058 0.923880
v -0.707107 1.654058 0.707107
v -0.923880 1.654058 0.382683
v -1.000000 1.654058 0.000000
v -1.072241 2.000000 -0.444136
v -0.820658 2.000000 -0.820657
v -0.820658 1.654058 -0.820657
v -1.072241 1.654058 -0.444136
v -0.444137 2.000000 -1.072240
v -0.444137 1.654058 -1.072240
v -0.000001 2.000000 -1.160585
v -0.000001 1.654058 -1.160585
v 0.444136 2.000000 -1.072241
v 0.444136 1.654058 -1.072241
v 0.820657 2.000000 -0.820658
v 0.820657 1.654058 -0.820658
v 1.072240 2.000000 -0.444137
v 1.072240 1.654058 -0.444137
v 1.160585 2.000000 -0.000000
v 1.160585 1.654058 -0.000000
v 1.072241 2.000000 0.444136
v 1.072241 1.654058 0.444136
v 0.820658 2.000000 0.820657
v 0.820658 1.654058 0.820657
v 0.444137 2.000000 1.072241
v 0.444137 1.654058 1.072241
v 0.000000 2.000000 1.160585
v 0.000000 1.654058 1.160585
v -0.444136 2.000000 1.072241
v -0.444136 1.654058 1.072241
v -0.820657 2.000000 0.820658
v -0.820657 1.654058 0.820658
v -1.072241 2.000000 0.444137
v -1.072241 1.654058 0.444137
v -1.160585 2.000000 0.000000
v -1.160585 1.654058 0.000000
v -0.722830 0.000000 -0.299405
v -0.553229 0.000000 -0.553229
v -0.299405 0.000000 -0.722830
v -0.000000 0.000000 -0.782384
v 0.299405 0.000000 -0.722830
v 0.553229 0.000000 -0.553229
v 0.722830 0.000000 -0.299405
v 0.782384 0.000000 -0.000000
v 0.722830 0.000000 0.299405
v 0.553229 0.000000 0.553229
v 0.299406 0.000000 0.722830
v 0.000000 0.000000 0.782384
v -0.299405 0.000000 0.722830
v -0.553229 0.000000 0.553229
v -0.722830 0.000000 0.299405
v -0.782384 0.000000 0.000000
v -0.000000 0.000000 -0.000000
vt 0.816822 0.257704
vt 0.753059 0.257704
vt 0.753059 0.000000
vt 0.816822 0.000000
vt 0.689368 0.257704
vt 0.689368 0.000000
vt 0.625680 0.257704
vt 0.625680 0.000000
vt 0.561973 0.257704
vt 0.561973 0.000000
vt 0.498278 0.257704
vt 0.498278 0.000000
vt 0.434535 0.257704
vt 0.434535 0.000000
vt 0.370837 0.257704
vt 0.370837 0.000000
vt 0.307167 0.257704
vt 0.307167 0.000000
vt 0.243509 0.257704
vt 0.243509 0.000000
vt 0.179799 0.257704
vt 0.179799 0.000000
vt 0.115879 0.257704
vt 0.115879 0.000000
vt 0.051455 0.257704
vt 0.051455 0.000000
vt 0.000000 0.257704
vt 1.000000 0.000000
vt 0.945198 0.257704
vt 0.945198 0.000000
vt 0.880804 0.257704
vt 0.880804 0.000000
vt 0.816822 0.334922
vt 0.205119 0.714068
vt 0.753059 0.281116
vt 0.816822 0.281116
vt 0.256851 0.714068
vt 0.689368 0.281116
vt 0.308443 0.714068
vt 0.625680 0.281116
vt 0.359981 0.714068
vt 0.561973 0.281116
vt 0.411779 0.714068
vt 0.498278 0.281116
vt 0.463933 0.714068
vt 0.434535 0.281116
vt 0.514824 0.714068
vt 0.370837 0.281116
vt 0.566154 0.714068
vt 0.307167 0.281116
vt 0.617927 0.714068
vt 0.243509 0.281116
vt 0.670147 0.714068
vt 0.179799 0.281116
vt 0.723380 0.714068
vt 0.115879 0.281116
vt 0.778527 0.714068
vt 0.051455 0.281116
vt 0.002474 0.714068
vt 1.000000 0.281116
vt 0.046274 0.714068
vt 0.945198 0.281116
vt 0.100301 0.714068
vt 0.880804 0.281116
vt 0.153059 0.661693
vt 0.205119 0.661693
vt 0.256851 0.661693
vt 0.308443 0.661693
vt 0.359981 0.661693
vt 0.411779 0.661693
vt 0.463933 0.661693
vt 0.514824 0.661693
vt 0.566154 0.661693
vt 0.617927 0.661693
vt 0.670147 0.661693
vt 0.723380 0.661693
vt 0.778527 0.661693
vt 0.825379 0.661693
vt 0.046274 0.661693
vt 0.100301 0.661693
vt 0.270145 0.831102
vt 0.252324 0.785568
vt 0.218435 0.750319
vt 0.173636 0.730722
vt 0.124748 0.729761
vt 0.079213 0.747582
vt 0.043964 0.781471
vt 0.024368 0.826270
vt 0.023406 0.875158
vt 0.041227 0.920693
vt 0.075117 0.955942
vt 0.119916 0.975538
vt 0.168804 0.976500
vt 0.214338 0.958679
vt 0.249587 0.924789
vt 0.269184 0.879990
vt 0.146776 0.853130
vt 0.880804 0.334922
vt 0.153059 0.714068
vt 0.945198 0.334922
vt 0.000000 0.334922
vt 0.051455 0.334922
vt 0.115879 0.334922
vt 0.179799 0.334922
vt 0.243509 0.334922
vt 0.307167 0.334922
vt 0.370837 0.334922
vt 0.434535 0.334922
vt 0.498278 0.334922
vt 0.561973 0.334922
vt 0.625680 0.334922
vt 0.689368 0.334922
vt 0.753059 0.334922
vt 0.100301 0.339355
vt 0.153059 0.339355
vt 0.046274 0.339355
vt 0.825379 0.339355
vt 0.778527 0.339355
vt 0.723380 0.339355
vt 0.670147 0.339355
vt 0.617927 0.339355
vt 0.566154 0.339355
vt 0.514824 0.339355
vt 0.463933 0.339355
vt 0.411779 0.339355
vt 0.359981 0.339355
vt 0.308443 0.339355
vt 0.256851 0.339355
vt 0.205119 0.339355
vt 0.002474 0.339355
vt 0.002474 0.661693
vt 0.825379 0.714068
vt 1.000000 0.334922
vt 0.000000 0.281116
vt 1.000000 0.257704
vt 0.000000 0.000000
vn -0.923880 0.000000 -0.382683
vn -0.707107 0.000000 -0.707106
vn -0.707107 0.000000 -0.707106
vn -0.923880 0.000000 -0.382683
vn -0.382684 0.000000 -0.923879
vn -0.382684 0.000000 -0.923879
vn -0.000001 0.000000 -1.000000
vn -0.000001 0.000000 -1.000000
vn 0.382683 0.000000 -0.923880
vn 0.382683 0.000000 -0.923880
vn 0.707106 0.000000 -0.707107
vn 0.707106 0.000000 -0.707107
vn 0.923879 0.000000 -0.382684
vn 0.923879 0.000000 -0.382684
vn 1.000000 0.000000 -0.000000
vn 1.000000 0.000000 -0.000000
vn 0.923880 0.000000 0.382683
vn 0.923880 0.000000 0.382683
vn 0.707107 0.000000 0.707107
vn 0.707107 0.000000 0.707107
vn 0.382684 0.000000 0.923880
vn 0.382684 0.000000 0.923880
vn 0.000000 0.000000 1.000000
vn 0.000000 0.000000 1.000000
vn -0.382683 0.000000 0.923880
vn -0.382683 0.000000 0.923880
vn -0.707107 0.000000 0.707107
vn -0.707107 0.000000 0.707107
vn -0.923880 0.000000 0.382683
vn -0.923880 0.000000 0.382683
vn -1.000000 0.000000 0.000000
vn -1.000000 0.000000 0.000000
vn -0.923880 0.000000 -0.382683
vn -0.707107 0.000000 -0.707106
vn -0.707107 0.000000 -0.707106
vn -0.923880 0.000000 -0.382683
vn -0.382684 -0.000000 -0.923879
vn -0.382684 -0.000000 -0.923879
vn -0.000001 -0.000000 -1.000000
vn -0.000001 -0.000000 -1.000000
vn 0.382683 -0.000000 -0.923880
vn 0.382683 -0.000000 -0.923880
vn 0.707106 0.000000 -0.707107
vn 0.707106 0.000000 -0.707107
vn 0.923879 0.000000 -0.382684
vn 0.923879 0.000000 -0.382684
vn 1.000000 0.000000 -0.000000
vn 1.000000 0.000000 -0.000000
vn 0.923880 -0.000000 0.382683
vn 0.923880 -0.000000 0.382683
vn 0.707107 -0.000000 0.707107
vn 0.707107 -0.000000 0.707107
vn 0.382684 -0.000000 0.923879
vn 0.382684 -0.000000 0.923879
vn 0.000000 -0.000000 1.000000
vn 0.000000 -0.000000 1.000000
vn -0.382683 -0.000000 0.923880
vn -0.382683 -0.000000 0.923880
vn -0.707107 -0.000000 0.707107
vn -0.707107 -0.000000 0.707107
vn -0.923880 0.000000 0.382683
vn -0.923880 0.000000 0.382683
vn -1.000000 0.000000 0.000000
vn -1.000000 0.000000 0.000000
vn 0.000000 1.000000 0.000000
vn 0.000000 1.000000 0.000000
vn 0.000000 1.000000 0.000000
vn 0.000000 1.000000 0.000000
vn 0.000000 -1.000000 0.000000
vn 0.000000 -1.000000 -0.000000
vn 0.000000 -1.000000 -0.000000
vn 0.000000 -1.000000 0.000000
vn 0.000000 1.000000 0.000000
vn 0.000000 1.000000 0.000000
vn 0.000000 -1.000000 0.000000
vn 0.000000 -1.000000 0.000000
vn 0.000000 1.000000 0.000000
vn 0.000000 1.000000 0.000000
vn 0.000000 -1.000000 0.000000
vn 0.000000 -1.000000 0.000000
vn 0.000000 1.000000 -0.000000
vn 0.000000 1.000000 -0.000000
vn 0.000000 -1.000000 0.000000
vn 0.000000 -1.000000 0.000000
vn 0.000000 1.000000 -0.000000
vn 0.000000 1.000000 -0.000000
vn 0.000000 -1.000000 0.000000
vn 0.000000 -1.000000 0.000000
vn 0.000000 1.000000 0.000000
vn 0.000000 1.000000 0.000000
vn 0.000000 -1.000000 -0.000000
vn 0.000000 -1.000000 -0.000000
vn 0.000000 1.000000 0.000000
vn 0.000000 1.000000 0.000000
vn 0.000000 -1.000000 0.000000
vn 0.000000 -1.000000 0.000000
vn 0.000000 1.000000 0.000000
vn 0.000000 1.000000 0.000000
vn 0.000000 -1.000000 0.000000
vn 0.000000 -1.000000 0.000000
vn 0.000000 1.000000 0.000000
vn 0.000000 1.000000 0.000000
vn 0.000000 -1.000000 -0.000000
vn 0.000000 -1.000000 -0.000000
vn 0.000000 1.000000 0.000000
vn 0.000000 1.000000 0.000000
vn 0.000000 -1.000000 -0.000000
vn 0.000000 -1.000000 -0.000000
vn 0.000000 1.000000 -0.000000
vn 0.000000 1.000000 -0.000000
vn 0.000000 -1.000000 -0.000000
vn 0.000000 -1.000000 -0.000000
vn 0.000000 1.000000 -0.000000
vn 0.000000 1.000000 -0.000000
vn 0.000000 -1.000000 -0.000001
vn 0.000000 -1.000000 -0.000001
vn 0.000000 1.000000 -0.000000
vn 0.000000 1.000000 -0.000000
vn 0.000000 -1.000000 -0.000000
vn 0.000000 -1.000000 -0.000000
vn 0.000000 1.000000 0.000000
vn 0.000000 1.000000 0.000000
vn 0.000000 -1.000000 0.000000
vn 0.000000 -1.000000 0.000000
vn 0.000000 1.000000 0.000000
vn 0.000000 1.000000 0.000000
vn 0.000000 -1.000000 -0.000000
vn 0.000000 -1.000000 -0.000000
vn 0.707107 0.000000 0.707106
vn 0.923880 0.000000 0.382683
vn 0.923880 0.000000 0.382683
vn 0.707107 0.000000 0.707106
vn 0.382683 0.000000 0.923880
vn 0.382683 0.000000 0.923880
vn 0.000000 0.000000 1.000000
vn 0.000000 0.000000 1.000000
vn -0.382683 0.000000 0.923880
vn -0.382683 0.000000 0.923880
vn -0.707106 0.000000 0.707107
vn -0.707106 0.000000 0.707107
vn -0.923880 0.000000 0.382683
vn -0.923880 0.000000 0.382683
vn -1.000000 0.000000 0.000000
vn -1.000000 0.000000 0.000000
vn -0.923880 0.000000 -0.382683
vn -0.923880 0.000000 -0.382683
vn -0.707107 0.000000 -0.707106
vn -0.707107 0.000000 -0.707106
vn -0.382683 0.000000 -0.923880
vn -0.382683 0.000000 -0.923880
vn 0.000000 0.000000 -1.000000
vn 0.000000 0.000000 -1.000000
vn 0.382683 0.000000 -0.923880
vn 0.382683 0.000000 -0.923880
vn 0.707107 0.000000 -0.707107
vn 0.707107 0.000000 -0.707107
vn 0.923880 0.000000 -0.382683
vn 0.923880 0.000000 -0.382683
vn 1.000000 0.000000 0.000000
vn 1.000000 0.000000 0.000000
vn 0.000000 1.000000 0.000000
vn 0.000000 1.000000 0.000000
vn 0.000000 1.000000 0.000000
vn 0.000000 1.000000 0.000000
vn 0.000000 1.000000 0.000000
vn 0.000000 1.000000 0.000000
vn 0.000000 1.000000 0.000000
vn 0.000000 1.000000 0.000000
vn 0.000000 1.000000 0.000000
vn 0.000000 1.000000 0.000000
vn 0.000000 1.000000 0.000000
vn 0.000000 1.000000 0.000000
vn 0.000000 1.000000 0.000000
vn 0.000000 1.000000 0.000000
vn 0.000000 1.000000 0.000000
vn 0.000000 1.000000 0.000000
vn 0.000000 1.000000 0.000000
vn 0.000000 1.000000 0.000000
vn 0.000000 1.000000 0.000000
vn 0.000000 1.000000 0.000000
vn 0.000000 1.000000 0.000000
vn 0.000000 1.000000 0.000000
vn 0.000000 1.000000 0.000000
vn 0.000000 1.000000 0.000000
vn 0.000000 1.000000 0.000000
vn 0.000000 1.000000 0.000000
vn 0.000000 1.000000 0.000000
vn 0.000000 1.000000 0.000000
vn 0.000000 1.000000 0.000000
vn 0.000000 1.000000 0.000000
vn 0.000000 1.000000 0.000000
vn 0.000000 1.000000 0.000000
vn 0.000000 1.000000 0.000000
vn 0.000000 1.000000 0.000000
vn 0.000000 1.000000 0.000000
vn 0.000000 1.000000 0.000000
vn 0.000000 1.000000 0.000000
vn 0.000000 1.000000 0.000000
vn 0.000000 1.000000 0.000000
vn 0.000000 1.000000 0.000000
vn 0.000000 1.000000 0.000000
vn 0.000000 1.000000 0.000000
vn 0.000000 1.000000 0.000000
vn 0.000000 1.000000 0.000000
vn 0.000000 1.000000 0.000000
vn 0.000000 1.000000 0.000000
vn 0.000000 1.000000 0.000000
vn 0.000000 1.000000 0.000000
s 1
g PipeThin_End
usemtl initialShadingGroup
f 33/1/1 34/2/2 2/3/3 1/4/4
f 34/2/2 35/5/5 3/6/6 2/3/3
f 35/5/5 36/7/7 4/8/8 3/6/6
f 36/7/7 37/9/9 5/10/10 4/8/8
f 37/9/9 38/11/11 6/12/12 5/10/10
f 38/11/11 39/13/13 7/14/14 6/12/12
f 39/13/13 40/15/15 8/16/16 7/14/14
f 40/15/15 41/17/17 9/18/18 8/16/16
f 41/17/17 42/19/19 10/20/20 9/18/18
f 42/19/19 43/21/21 11/22/22 10/20/20
f 43/21/21 44/23/23 12/24/24 11/22/22
f 44/23/23 45/25/25 13/26/26 12/24/24
f 45/25/25 46/27/27 14/136/28 13/26/26
f 46/135/27 47/29/29 15/30/30 14/28/28
f 47/29/29 48/31/31 16/32/32 15/30/30
f 48/31/31 33/1/1 1/4/4 16/32/32
s 2
f 49/33/33 50/113/34 51/35/35 52/36/36
f 50/113/34 53/112/37 54/38/38 51/35/35
f 53/112/37 55/111/39 56/40/40 54/38/38
f 55/111/39 57/110/41 58/42/42 56/40/40
f 57/110/41 59/109/43 60/44/44 58/42/42
f 59/109/43 61/108/45 62/46/46 60/44/44
f 61/108/45 63/107/47 64/48/48 62/46/46
f 63/107/47 65/106/49 66/50/50 64/48/48
f 65/106/49 67/105/51 68/52/52 66/50/50
f 67/105/51 69/104/53 70/54/54 68/52/52
f 69/104/53 71/103/55 72/56/56 70/54/54
f 71/103/55 73/102/57 74/58/58 72/56/56
f 73/102/57 75/101/59 76/134/60 74/58/58
f 75/133/59 77/100/61 78/62/62 76/60/60
f 77/100/61 79/98/63 80/64/64 78/62/62
f 79/98/63 49/33/33 52/36/36 80/64/64
s 3
f 17/65/65 18/66/66 50/34/67 49/99/68
s 4
f 34/2/69 33/1/70 52/36/71 51/35/72
s 3
f 18/66/66 19/67/73 53/37/74 50/34/67
s 4
f 35/5/75 34/2/69 51/35/72 54/38/76
s 3
f 19/67/73 20/68/77 55/39/78 53/37/74
s 4
f 36/7/79 35/5/75 54/38/76 56/40/80
s 3
f 20/68/77 21/69/81 57/41/82 55/39/78
s 4
f 37/9/83 36/7/79 56/40/80 58/42/84
s 3
f 21/69/81 22/70/85 59/43/86 57/41/82
s 4
f 38/11/87 37/9/83 58/42/84 60/44/88
s 3
f 22/70/85 23/71/89 61/45/90 59/43/86
s 4
f 39/13/91 38/11/87 60/44/88 62/46/92
s 3
f 23/71/89 24/72/93 63/47/94 61/45/90
s 4
f 40/15/95 39/13/91 62/46/92 64/48/96
s 3
f 24/72/93 25/73/97 65/49/98 63/47/94
s 4
f 41/17/99 40/15/95 64/48/96 66/50/100
s 3
f 25/73/97 26/74/101 67/51/102 65/49/98
s 4
f 42/19/103 41/17/99 66/50/100 68/52/104
s 3
f 26/74/101 27/75/105 69/53/106 67/51/102
s 4
f 43/21/107 42/19/103 68/52/104 70/54/108
s 3
f 27/75/105 28/76/109 71/55/110 69/53/106
s 4
f 44/23/111 43/21/107 70/54/108 72/56/112
s 3
f 28/76/109 29/77/113 73/57/114 71/55/110
s 4
f 45/25/115 44/23/111 72/56/112 74/58/116
s 3
f 29/77/113 30/78/117 75/132/118 73/57/114
s 4
f 46/27/119 45/25/115 74/58/116 76/134/120
s 3
f 30/131/117 31/79/121 77/61/122 75/59/118
s 4
f 47/29/123 46/135/119 76/60/120 78/62/124
s 3
f 31/79/121 32/80/125 79/63/126 77/61/122
s 4
f 48/31/127 47/29/123 78/62/124 80/64/128
s 3
f 32/80/125 17/65/65 49/99/68 79/63/126
s 4
f 33/1/70 48/31/127 80/64/128 52/36/71
s 5
f 18/66/129 17/65/130 81/115/131 82/129/132
f 19/67/133 18/66/129 82/129/132 83/128/134
f 20/68/135 19/67/133 83/128/134 84/127/136
f 21/69/137 20/68/135 84/127/136 85/126/138
f 22/70/139 21/69/137 85/126/138 86/125/140
f 23/71/141 22/70/139 86/125/140 87/124/142
f 24/72/143 23/71/141 87/124/142 88/123/144
f 25/73/145 24/72/143 88/123/144 89/122/146
f 26/74/147 25/73/145 89/122/146 90/121/148
f 27/75/149 26/74/147 90/121/148 91/120/150
f 28/76/151 27/75/149 91/120/150 92/119/152
f 29/77/153 28/76/151 92/119/152 93/118/154
f 30/78/155 29/77/153 93/118/154 94/117/156
f 31/79/157 30/131/155 94/130/156 95/116/158
f 32/80/159 31/79/157 95/116/158 96/114/160
f 17/65/130 32/80/159 96/114/160 81/115/131
s off
f 82/82/161 81/81/162 97/97/163
f 83/83/164 82/82/165 97/97/166
f 84/84/167 83/83/168 97/97/169
f 85/85/170 84/84/171 97/97/172
f 86/86/173 85/85/174 97/97/175
f 87/87/176 86/86/177 97/97/178
f 88/88/179 87/87/180 97/97/181
f 89/89/182 88/88/183 97/97/184
f 90/90/185 89/89/186 97/97/187
f 91/91/188 90/90/189 97/97/190
f 92/92/191 91/91/192 97/97/193
f 93/93/194 92/92/195 97/97/196
f 94/94/197 93/93/198 97/97/199
f 95/95/200 94/94/201 97/97/202
f 96/96/203 95/95/204 97/97/205
f 81/81/206 96/96/207 97/97/208
